<?xml version="1.0" encoding="UTF-8" standalone="no"?>
<svg width="320" height="320" viewBox="0 0 320 320" fill="none" xmlns="http://www.w3.org/2000/svg">
  <!-- Ground Tiles (Row 1) -->
  <!-- Grass -->
  <rect x="0" y="0" width="32" height="32" fill="#3a822e"/>
  <rect x="2" y="2" width="4" height="4" fill="#4a9e37"/>
  <rect x="20" y="15" width="3" height="3" fill="#4a9e37"/>
  <rect x="10" y="25" width="5" height="5" fill="#4a9e37"/>
  
  <!-- Dirt -->
  <rect x="32" y="0" width="32" height="32" fill="#7d5c25"/>
  <rect x="34" y="4" width="6" height="6" fill="#9c7331"/>
  <rect x="45" y="21" width="4" height="4" fill="#9c7331"/>
  <rect x="58" y="12" width="3" height="3" fill="#9c7331"/>
  
  <!-- Stone -->
  <rect x="64" y="0" width="32" height="32" fill="#6e7984"/>
  <rect x="70" y="5" width="15" height="15" fill="#5c6670"/>
  <rect x="85" y="20" width="8" height="8" fill="#5c6670"/>
  
  <!-- Sand -->
  <rect x="96" y="0" width="32" height="32" fill="#e8d95a"/>
  <rect x="100" y="10" width="6" height="6" fill="#f3e670"/>
  <rect x="115" y="20" width="4" height="4" fill="#f3e670"/>
  
  <!-- Water -->
  <rect x="128" y="0" width="32" height="32" fill="#3e95c9"/>
  <path d="M130,10 Q140,5 150,10 Q160,15 158,5" stroke="#79c8eb" stroke-width="2" fill="none"/>
  <path d="M140,25 Q150,20 160,25" stroke="#79c8eb" stroke-width="2" fill="none"/>

  <!-- Wall Tiles (Row 2) -->
  <!-- Stone Wall -->
  <rect x="0" y="32" width="32" height="32" fill="#595959"/>
  <rect x="4" y="36" width="24" height="8" fill="#444444"/>
  <rect x="4" y="46" width="24" height="8" fill="#444444"/>
  <rect x="4" y="56" width="24" height="4" fill="#444444"/>
  
  <!-- Brick Wall -->
  <rect x="32" y="32" width="32" height="32" fill="#a54d35"/>
  <rect x="33" y="33" width="14" height="6" fill="#8e3b26"/>
  <rect x="49" y="33" width="14" height="6" fill="#8e3b26"/>
  <rect x="40" y="41" width="14" height="6" fill="#8e3b26"/>
  <rect x="33" y="49" width="14" height="6" fill="#8e3b26"/>
  <rect x="49" y="49" width="14" height="6" fill="#8e3b26"/>
  <rect x="40" y="57" width="14" height="6" fill="#8e3b26"/>
  
  <!-- Wooden Wall -->
  <rect x="64" y="32" width="32" height="32" fill="#8b5a2b"/>
  <rect x="69" y="33" width="4" height="30" fill="#6b4423"/>
  <rect x="79" y="33" width="4" height="30" fill="#6b4423"/>
  <rect x="89" y="33" width="4" height="30" fill="#6b4423"/>
  
  <!-- Window -->
  <rect x="96" y="32" width="32" height="32" fill="#595959"/>
  <rect x="100" y="36" width="24" height="24" fill="#3e95c9"/>
  <rect x="100" y="36" width="24" height="2" fill="#333333"/>
  <rect x="100" y="58" width="24" height="2" fill="#333333"/>
  <rect x="100" y="36" width="2" height="24" fill="#333333"/>
  <rect x="122" y="36" width="2" height="24" fill="#333333"/>
  <rect x="111" y="36" width="2" height="24" fill="#333333"/>
  <rect x="100" y="47" width="24" height="2" fill="#333333"/>
  
  <!-- Door -->
  <rect x="128" y="32" width="32" height="32" fill="#595959"/>
  <rect x="132" y="36" width="24" height="28" fill="#8b5a2b"/>
  <rect x="134" y="38" width="20" height="24" fill="#6b4423"/>
  <circle cx="144" cy="50" r="2" fill="#d9b258"/>

  <!-- Items and Objects (Row 3) -->
  <!-- Tree -->
  <rect x="0" y="64" width="32" height="32" fill="#3a822e"/>
  <rect x="12" y="80" width="8" height="16" fill="#6b4423"/>
  <circle cx="16" cy="75" r="15" fill="#2d6823"/>
  <circle cx="16" cy="70" r="12" fill="#3a822e"/>
  <circle cx="16" cy="65" r="8" fill="#4a9e37"/>
  
  <!-- Bush -->
  <rect x="32" y="64" width="32" height="32" fill="#3a822e"/>
  <circle cx="48" cy="80" r="16" fill="#2d6823"/>
  <circle cx="42" cy="75" r="10" fill="#3a822e"/>
  <circle cx="54" cy="75" r="10" fill="#3a822e"/>
  <circle cx="48" cy="72" r="8" fill="#4a9e37"/>
  
  <!-- Rock -->
  <rect x="64" y="64" width="32" height="32" fill="#3a822e"/>
  <ellipse cx="80" cy="80" rx="14" ry="10" fill="#6e7984"/>
  <ellipse cx="80" cy="78" rx="12" ry="8" fill="#5c6670"/>
  
  <!-- Chest (Closed) -->
  <rect x="96" y="64" width="32" height="32" fill="#3a822e"/>
  <rect x="104" y="80" width="16" height="12" fill="#8b5a2b"/>
  <rect x="104" y="80" width="16" height="2" fill="#6b4423"/>
  <rect x="104" y="82" width="16" height="8" fill="#a57a44"/>
  <rect x="110" y="85" width="4" height="2" fill="#d9b258"/>
  
  <!-- Chest (Open) -->
  <rect x="128" y="64" width="32" height="32" fill="#3a822e"/>
  <rect x="136" y="80" width="16" height="12" fill="#8b5a2b"/>
  <rect x="136" y="80" width="16" height="2" fill="#6b4423"/>
  <rect x="136" y="82" width="16" height="4" fill="#a57a44"/>
  <rect x="136" y="78" width="16" height="6" fill="#a57a44"/>
  <rect x="136" y="76" width="16" height="2" fill="#6b4423"/>
  <rect x="142" y="82" width="4" height="2" fill="#d9b258"/>

  <!-- Special Tiles (Row 4) -->
  <!-- Bed -->
  <rect x="0" y="96" width="32" height="32" fill="#595959"/>
  <rect x="4" y="112" width="24" height="12" fill="#6b4423"/>
  <rect x="4" y="110" width="24" height="2" fill="#8b5a2b"/>
  <rect x="4" y="112" width="24" height="6" fill="#a54d35"/>
  <rect x="4" y="104" width="8" height="6" fill="#a54d35"/>
  
  <!-- Table -->
  <rect x="32" y="96" width="32" height="32" fill="#595959"/>
  <rect x="40" y="112" width="16" height="12" fill="#8b5a2b"/>
  <rect x="38" y="110" width="20" height="2" fill="#a57a44"/>
  <rect x="40" y="112" width="4" height="12" fill="#6b4423"/>
  <rect x="52" y="112" width="4" height="12" fill="#6b4423"/>
  
  <!-- Bookshelf -->
  <rect x="64" y="96" width="32" height="32" fill="#595959"/>
  <rect x="68" y="100" width="24" height="24" fill="#8b5a2b"/>
  <rect x="68" y="106" width="24" height="2" fill="#6b4423"/>
  <rect x="68" y="114" width="24" height="2" fill="#6b4423"/>
  <rect x="68" y="122" width="24" height="2" fill="#6b4423"/>
  <rect x="70" y="108" width="5" height="6" fill="#a54d35"/>
  <rect x="77" y="108" width="5" height="6" fill="#2d6823"/>
  <rect x="84" y="108" width="5" height="6" fill="#3e95c9"/>
  <rect x="70" y="116" width="5" height="6" fill="#e8d95a"/>
  <rect x="77" y="116" width="5" height="6" fill="#a54d35"/>
  <rect x="84" y="116" width="5" height="6" fill="#7d5c25"/>
  
  <!-- Stairs -->
  <rect x="96" y="96" width="32" height="32" fill="#595959"/>
  <rect x="100" y="124" width="24" height="4" fill="#6e7984"/>
  <rect x="100" y="120" width="24" height="4" fill="#5c6670"/>
  <rect x="104" y="116" width="20" height="4" fill="#6e7984"/>
  <rect x="104" y="112" width="20" height="4" fill="#5c6670"/>
  <rect x="108" y="108" width="16" height="4" fill="#6e7984"/>
  <rect x="108" y="104" width="16" height="4" fill="#5c6670"/>
  <rect x="112" y="100" width="12" height="4" fill="#6e7984"/>
  
  <!-- Portal/Teleport -->
  <rect x="128" y="96" width="32" height="32" fill="#595959"/>
  <circle cx="144" cy="112" r="12" fill="#6a0dad"/>
  <circle cx="144" cy="112" r="8" fill="#8b22cc"/>
  <circle cx="144" cy="112" r="4" fill="#9f45d6"/>
  <circle cx="140" cy="108" r="2" fill="#ffffff"/>

  <!-- Character tiles (Row 5) -->
  <!-- Player (Down) -->
  <rect x="0" y="128" width="32" height="32" fill="none"/>
  <rect x="12" y="140" width="8" height="16" fill="#6b4423"/> <!-- Body -->
  <circle cx="16" cy="134" r="8" fill="#ffdbac"/> <!-- Head -->
  <rect x="8" y="150" width="4" height="8" fill="#3e95c9"/> <!-- Left Leg -->
  <rect x="20" y="150" width="4" height="8" fill="#3e95c9"/> <!-- Right Leg -->
  <rect x="6" y="142" width="4" height="8" fill="#3e95c9"/> <!-- Left Arm -->
  <rect x="22" y="142" width="4" height="8" fill="#3e95c9"/> <!-- Right Arm -->
  <ellipse cx="14" cy="134" rx="1" ry="1" fill="#000000"/> <!-- Left Eye -->
  <ellipse cx="18" cy="134" rx="1" ry="1" fill="#000000"/> <!-- Right Eye -->
  <path d="M14,138 Q16,140 18,138" stroke="#000000" stroke-width="1" fill="none"/> <!-- Mouth -->

  <!-- Player (Right) -->
  <rect x="32" y="128" width="32" height="32" fill="none"/>
  <rect x="44" y="140" width="8" height="16" fill="#6b4423"/> <!-- Body -->
  <circle cx="48" cy="134" r="8" fill="#ffdbac"/> <!-- Head -->
  <rect x="40" y="150" width="4" height="8" fill="#3e95c9"/> <!-- Left Leg -->
  <rect x="52" y="150" width="4" height="8" fill="#3e95c9"/> <!-- Right Leg -->
  <rect x="46" y="142" width="10" height="4" fill="#3e95c9"/> <!-- Right Arm -->
  <ellipse cx="50" cy="134" rx="1" ry="1" fill="#000000"/> <!-- Right Eye -->
  <path d="M50,138 Q52,138 52,137" stroke="#000000" stroke-width="1" fill="none"/> <!-- Mouth -->

  <!-- Player (Up) -->
  <rect x="64" y="128" width="32" height="32" fill="none"/>
  <rect x="76" y="140" width="8" height="16" fill="#6b4423"/> <!-- Body -->
  <circle cx="80" cy="134" r="8" fill="#ffdbac"/> <!-- Head -->
  <rect x="72" y="150" width="4" height="8" fill="#3e95c9"/> <!-- Left Leg -->
  <rect x="84" y="150" width="4" height="8" fill="#3e95c9"/> <!-- Right Leg -->
  <rect x="70" y="142" width="4" height="8" fill="#3e95c9"/> <!-- Left Arm -->
  <rect x="86" y="142" width="4" height="8" fill="#3e95c9"/> <!-- Right Arm -->

  <!-- Player (Left) -->
  <rect x="96" y="128" width="32" height="32" fill="none"/>
  <rect x="108" y="140" width="8" height="16" fill="#6b4423"/> <!-- Body -->
  <circle cx="112" cy="134" r="8" fill="#ffdbac"/> <!-- Head -->
  <rect x="104" y="150" width="4" height="8" fill="#3e95c9"/> <!-- Left Leg -->
  <rect x="116" y="150" width="4" height="8" fill="#3e95c9"/> <!-- Right Leg -->
  <rect x="98" y="142" width="10" height="4" fill="#3e95c9"/> <!-- Left Arm -->
  <ellipse cx="110" cy="134" rx="1" ry="1" fill="#000000"/> <!-- Left Eye -->
  <path d="M108,138 Q110,138 110,137" stroke="#000000" stroke-width="1" fill="none"/> <!-- Mouth -->

  <!-- NPC -->
  <rect x="128" y="128" width="32" height="32" fill="none"/>
  <rect x="140" y="140" width="8" height="16" fill="#2d6823"/> <!-- Body -->
  <circle cx="144" cy="134" r="8" fill="#ffdbac"/> <!-- Head -->
  <rect x="136" y="150" width="4" height="8" fill="#444444"/> <!-- Left Leg -->
  <rect x="148" y="150" width="4" height="8" fill="#444444"/> <!-- Right Leg -->
  <rect x="134" y="142" width="4" height="8" fill="#444444"/> <!-- Left Arm -->
  <rect x="150" y="142" width="4" height="8" fill="#444444"/> <!-- Right Arm -->
  <ellipse cx="142" cy="134" rx="1" ry="1" fill="#000000"/> <!-- Left Eye -->
  <ellipse cx="146" cy="134" rx="1" ry="1" fill="#000000"/> <!-- Right Eye -->
  <path d="M142,137 Q144,139 146,137" stroke="#000000" stroke-width="1" fill="none"/> <!-- Mouth -->

  <!-- Item Collectibles (Row 6) -->
  <!-- Coin -->
  <rect x="0" y="160" width="32" height="32" fill="none"/>
  <circle cx="16" cy="176" r="8" fill="#d9b258"/>
  <circle cx="16" cy="176" r="6" fill="#f3e670"/>
  <circle cx="16" cy="176" r="4" fill="#d9b258"/>
  <path d="M14,172 L18,172 L18,180 L14,180 Z" fill="#f3e670"/>
  
  <!-- Potion -->
  <rect x="32" y="160" width="32" height="32" fill="none"/>
  <rect x="44" y="174" width="8" height="12" fill="#a54d35"/>
  <rect x="42" y="168" width="12" height="6" fill="#a54d35"/>
  <rect x="45" y="164" width="6" height="4" fill="#a54d35"/>
  <rect x="44" y="174" width="8" height="8" fill="#e8394c"/>
  <rect x="46" y="176" width="4" height="4" fill="#f25e6d"/>
  
  <!-- Key -->
  <rect x="64" y="160" width="32" height="32" fill="none"/>
  <circle cx="80" cy="168" r="4" fill="#d9b258"/>
  <rect x="78" y="172" width="4" height="12" fill="#d9b258"/>
  <rect x="82" y="176" width="4" height="4" fill="#d9b258"/>
  <rect x="74" y="180" width="4" height="4" fill="#d9b258"/>
  
  <!-- Scroll -->
  <rect x="96" y="160" width="32" height="32" fill="none"/>
  <rect x="104" y="168" width="16" height="16" fill="#f5f5f5"/>
  <rect x="104" y="168" width="16" height="3" fill="#d0d0d0"/>
  <rect x="104" y="181" width="16" height="3" fill="#d0d0d0"/>
  <rect x="110" y="172" width="4" height="1" fill="#000000"/>
  <rect x="108" y="174" width="8" height="1" fill="#000000"/>
  <rect x="106" y="176" width="12" height="1" fill="#000000"/>
  <rect x="109" y="178" width="6" height="1" fill="#000000"/>
  
  <!-- Gem -->
  <rect x="128" y="160" width="32" height="32" fill="none"/>
  <polygon points="144,168 139,172 139,180 144,184 149,180 149,172" fill="#3e95c9"/>
  <polygon points="144,170 141,173 141,178 144,181 147,178 147,173" fill="#79c8eb"/>
  <circle cx="143" cy="172" r="1" fill="#ffffff"/>

  <!-- Special Effects (Row 7) -->
  <!-- Fire -->
  <rect x="0" y="192" width="32" height="32" fill="none"/>
  <path d="M10,212 Q16,195 22,212 Q16,220 10,212 Z" fill="#e8394c"/>
  <path d="M12,212 Q16,200 20,212 Q16,218 12,212 Z" fill="#f3e670"/>
  
  <!-- Smoke -->
  <rect x="32" y="192" width="32" height="32" fill="none"/>
  <circle cx="48" cy="208" r="12" fill="#d0d0d0" fill-opacity="0.6"/>
  <circle cx="44" cy="202" r="6" fill="#e6e6e6" fill-opacity="0.6"/>
  <circle cx="52" cy="204" r="5" fill="#e6e6e6" fill-opacity="0.6"/>
  
  <!-- Splash -->
  <rect x="64" y="192" width="32" height="32" fill="none"/>
  <path d="M72,208 L76,202 L80,198 L84,202 L88,208" stroke="#79c8eb" stroke-width="2" fill="none"/>
  <path d="M72,212 L76,216 L80,218 L84,216 L88,212" stroke="#79c8eb" stroke-width="2" fill="none"/>
  <circle cx="80" cy="208" r="2" fill="#3e95c9"/>
  
  <!-- Sparkle -->
  <rect x="96" y="192" width="32" height="32" fill="none"/>
  <path d="M112,200 L112,216" stroke="#f3e670" stroke-width="2"/>
  <path d="M104,208 L120,208" stroke="#f3e670" stroke-width="2"/>
  <path d="M106,202 L118,214" stroke="#f3e670" stroke-width="2"/>
  <path d="M106,214 L118,202" stroke="#f3e670" stroke-width="2"/>
  <circle cx="112" cy="208" r="3" fill="#ffffff"/>
  
  <!-- Shadow -->
  <rect x="128" y="192" width="32" height="32" fill="none"/>
  <ellipse cx="144" cy="208" rx="10" ry="5" fill="rgba(0,0,0,0.5)"/>

  <!-- UI Elements (Row 8) -->
  <!-- Heart (Full) -->
  <rect x="0" y="224" width="32" height="32" fill="none"/>
  <path d="M16,242 L8,234 Q4,230 8,226 Q12,222 16,226 Q20,222 24,226 Q28,230 24,234 Z" fill="#e8394c"/>
  
  <!-- Heart (Empty) -->
  <rect x="32" y="224" width="32" height="32" fill="none"/>
  <path d="M48,242 L40,234 Q36,230 40,226 Q44,222 48,226 Q52,222 56,226 Q60,230 56,234 Z" fill="none" stroke="#e8394c" stroke-width="2"/>
  
  <!-- Coin UI -->
  <rect x="64" y="224" width="32" height="32" fill="none"/>
  <circle cx="80" cy="240" r="8" fill="#d9b258"/>
  <circle cx="80" cy="240" r="6" fill="#f3e670"/>
  <text x="80" y="244" font-family="monospace" font-size="10" fill="#000000" text-anchor="middle">$</text>
  
  <!-- Arrow -->
  <rect x="96" y="224" width="32" height="32" fill="none"/>
  <polygon points="112,232 104,240 112,248 112,244 120,244 120,236 112,236" fill="#ffffff"/>
  
  <!-- X Button -->
  <rect x="128" y="224" width="32" height="32" fill="none"/>
  <circle cx="144" cy="240" r="10" fill="#444444"/>
  <path d="M138,234 L150,246" stroke="#ffffff" stroke-width="2"/>
  <path d="M150,234 L138,246" stroke="#ffffff" stroke-width="2"/>

  <!-- Additional Tiles for variation -->
  <!-- Tall Grass -->
  <rect x="160" y="0" width="32" height="32" fill="#3a822e"/>
  <path d="M164,16 L164,32" stroke="#4a9e37" stroke-width="2"/>
  <path d="M170,12 L170,32" stroke="#4a9e37" stroke-width="2"/>
  <path d="M176,14 L176,32" stroke="#4a9e37" stroke-width="2"/>
  <path d="M182,10 L182,32" stroke="#4a9e37" stroke-width="2"/>
  <path d="M188,16 L188,32" stroke="#4a9e37" stroke-width="2"/>
  
  <!-- Flower Grass -->
  <rect x="192" y="0" width="32" height="32" fill="#3a822e"/>
  <circle cx="200" cy="10" r="3" fill="#e8394c"/>
  <circle cx="210" cy="18" r="3" fill="#f3e670"/>
  <circle cx="204" cy="24" r="3" fill="#3e95c9"/>
  <circle cx="218" cy="8" r="3" fill="#f3e670"/>
  
  <!-- Dark Stone -->
  <rect x="224" y="0" width="32" height="32" fill="#444444"/>
  <rect x="230" y="5" width="15" height="15" fill="#333333"/>
  <rect x="245" y="20" width="8" height="8" fill="#333333"/>
  
  <!-- Gravel -->
  <rect x="256" y="0" width="32" height="32" fill="#777777"/>
  <circle cx="262" cy="6" r="2" fill="#999999"/>
  <circle cx="270" cy="12" r="3" fill="#999999"/>
  <circle cx="280" cy="8" r="2" fill="#999999"/>
  <circle cx="265" cy="20" r="3" fill="#999999"/>
  <circle cx="275" cy="25" r="2" fill="#999999"/>
  <circle cx="282" cy="18" r="3" fill="#999999"/>
  
  <!-- Ice/Snow -->
  <rect x="288" y="0" width="32" height="32" fill="#f0f0ff"/>
  <rect x="290" y="2" width="5" height="5" fill="#ffffff"/>
  <rect x="304" y="8" width="6" height="6" fill="#ffffff"/>
  <rect x="298" y="20" width="4" height="4" fill="#ffffff"/>
  <rect x="310" y="22" width="5" height="5" fill="#ffffff"/>
</svg>