<svg xmlns="http://www.w3.org/2000/svg" viewBox="0 0 32 32">
  <!-- Eden's Hollow Pixel Art Health Potion -->
  
  <!-- Potion bottle shape -->
  <path d="M12,8 L20,8 L20,12 C20,12 24,16 24,20 C24,24 20,28 16,28 C12,28 8,24 8,20 C8,16 12,12 12,12 Z" fill="#BD2CFF" opacity="0.9"/>
  
  <!-- Bottle neck -->
  <rect x="14" y="5" width="4" height="3" fill="#A020F0"/>
  
  <!-- Bottle cap -->
  <rect x="13" y="3" width="6" height="2" fill="#4B0082"/>
  
  <!-- Liquid inside -->
  <path d="M12,13 L20,13 C20,13 22,16 22,20 C22,22 20,26 16,26 C12,26 10,22 10,20 C10,16 12,13 12,13 Z" fill="#FF0066"/>
  
  <!-- Bubbles in the potion -->
  <circle cx="14" cy="16" r="1.5" fill="#FFFFFF" opacity="0.8"/>
  <circle cx="17" cy="19" r="1" fill="#FFFFFF" opacity="0.6"/>
  <circle cx="15" cy="22" r="1.2" fill="#FFFFFF" opacity="0.7"/>
  
  <!-- Bottle highlights (2x2 pixel squares for pixel art look) -->
  <rect x="14" y="10" width="2" height="2" fill="#FFFFFF" opacity="0.4"/>
  <rect x="18" y="14" width="2" height="2" fill="#FFFFFF" opacity="0.3"/>
  
  <!-- Pixel art detail for potion glow effect -->
  <path d="M12,24 L10,26 L9,24 L10,22 Z" fill="#FF99CC" opacity="0.6"/>
  <path d="M20,24 L22,26 L23,24 L22,22 Z" fill="#FF99CC" opacity="0.6"/>
</svg>
