<svg xmlns="http://www.w3.org/2000/svg" viewBox="0 0 128 64">
  <!-- Eden's Hollow Tileset -->
  <!-- Row 1: Basic terrain tiles -->
  
  <!-- Tile 1: Wall (Dark Green with subtle texture) -->
  <g id="wall-tile">
    <rect x="0" y="0" width="32" height="32" fill="#1E5128"/>
    <rect x="0" y="0" width="16" height="16" fill="#143718" opacity="0.3"/>
    <rect x="16" y="16" width="16" height="16" fill="#143718" opacity="0.3"/>
    <rect x="4" y="4" width="4" height="4" fill="#0C2010" opacity="0.2"/>
    <rect x="20" y="10" width="4" height="4" fill="#0C2010" opacity="0.2"/>
    <rect x="12" y="20" width="4" height="4" fill="#0C2010" opacity="0.2"/>
    <rect x="24" y="24" width="4" height="4" fill="#0C2010" opacity="0.2"/>
  </g>
  
  <!-- Tile 2: Edge terrain (Regular Green) -->
  <g id="edge-tile">
    <rect x="32" y="0" width="32" height="32" fill="#2D6A21"/>
    <path d="M32,0 L64,0 L64,32 L32,32 Z" fill="#2D6A21"/>
    <path d="M32,8 L40,8 L40,16 L32,16 Z" fill="#387D2A" opacity="0.7"/>
    <path d="M48,16 L56,16 L56,24 L48,24 Z" fill="#387D2A" opacity="0.7"/>
    <path d="M40,24 L48,24 L48,32 L40,32 Z" fill="#387D2A" opacity="0.7"/>
  </g>
  
  <!-- Tile 3: Path/Grass (Light Green) -->
  <g id="grass-tile">
    <rect x="64" y="0" width="32" height="32" fill="#52A336"/>
    <path d="M64,0 L96,0 L96,32 L64,32 Z" fill="#52A336"/>
    <!-- Grass blades -->
    <path d="M68,4 L72,8 L68,8 Z" fill="#7CFC00" opacity="0.5"/>
    <path d="M84,12 L88,16 L84,16 Z" fill="#7CFC00" opacity="0.5"/>
    <path d="M74,24 L78,28 L74,28 Z" fill="#7CFC00" opacity="0.5"/>
    <path d="M90,20 L94,24 L90,24 Z" fill="#7CFC00" opacity="0.5"/>
  </g>
  
  <!-- Tile 4: Dirt/Path (Brown) -->
  <g id="dirt-tile">
    <rect x="96" y="0" width="32" height="32" fill="#8B6914"/>
    <path d="M96,0 L128,0 L128,32 L96,32 Z" fill="#8B6914"/>
    <!-- Dirt texture -->
    <path d="M100,8 L104,12 L100,12 Z" fill="#6F5118" opacity="0.7"/>
    <path d="M116,4 L120,8 L116,8 Z" fill="#6F5118" opacity="0.7"/>
    <path d="M108,20 L112,24 L108,24 Z" fill="#6F5118" opacity="0.7"/>
    <path d="M120,24 L124,28 L120,28 Z" fill="#6F5118" opacity="0.7"/>
  </g>
  
  <!-- Row 2: Special tiles -->
  
  <!-- Tile 5: Water (Blue with ripple effect) -->
  <g id="water-tile">
    <rect x="0" y="32" width="32" height="32" fill="#0099CC"/>
    <path d="M0,40 Q8,36 16,40 Q24,44 32,40 L32,48 Q24,52 16,48 Q8,44 0,48 Z" fill="#4DB9DB" opacity="0.5"/>
    <path d="M0,56 Q8,52 16,56 Q24,60 32,56 L32,64 Q24,68 16,64 Q8,60 0,64 Z" fill="#4DB9DB" opacity="0.5"/>
  </g>
  
  <!-- Tile 6: Stone (Gray with texture) -->
  <g id="stone-tile">
    <rect x="32" y="32" width="32" height="32" fill="#808080"/>
    <!-- Stone texture -->
    <path d="M36,36 L44,36 L44,44 L36,44 Z" fill="#707070"/>
    <path d="M52,40 L60,40 L60,48 L52,48 Z" fill="#707070"/>
    <path d="M40,52 L48,52 L48,60 L40,60 Z" fill="#707070"/>
  </g>
  
  <!-- Tile 7: Sand (Light beige) -->
  <g id="sand-tile">
    <rect x="64" y="32" width="32" height="32" fill="#F2D16B"/>
    <!-- Sand texture -->
    <path d="M68,36 L72,40 L68,40 Z" fill="#DFC270" opacity="0.5"/>
    <path d="M80,44 L84,48 L80,48 Z" fill="#DFC270" opacity="0.5"/>
    <path d="M72,52 L76,56 L72,56 Z" fill="#DFC270" opacity="0.5"/>
    <path d="M88,56 L92,60 L88,60 Z" fill="#DFC270" opacity="0.5"/>
  </g>
  
  <!-- Tile 8: Dark stone/special (Dark gray) -->
  <g id="dark-stone-tile">
    <rect x="96" y="32" width="32" height="32" fill="#4D4D4D"/>
    <!-- Special effects - pixels that look like crystals -->
    <rect x="104" y="40" width="2" height="2" fill="#A180FF"/>
    <rect x="116" y="44" width="2" height="2" fill="#A180FF"/>
    <rect x="108" y="52" width="2" height="2" fill="#A180FF"/>
    <rect x="120" y="56" width="2" height="2" fill="#A180FF"/>
  </g>
</svg>
