<svg xmlns="http://www.w3.org/2000/svg" viewBox="0 0 32 32">
  <!-- Eden's Hollow Pixel Art Treasure Chest -->
  
  <!-- Chest base -->
  <rect x="4" y="12" width="24" height="12" fill="#8B4513"/>
  
  <!-- Chest lid (closed state) -->
  <rect x="4" y="8" width="24" height="4" fill="#A0522D"/>
  
  <!-- Chest interior -->
  <rect x="6" y="14" width="20" height="8" fill="#DAA520" opacity="0.9"/>
  
  <!-- Chest rim details -->
  <rect x="4" y="12" width="24" height="1" fill="#623412"/>
  <rect x="4" y="23" width="24" height="1" fill="#623412"/>
  
  <!-- Metal decorative bands -->
  <rect x="4" y="16" width="24" height="1" fill="#B8860B"/>
  <rect x="4" y="20" width="24" height="1" fill="#B8860B"/>
  
  <!-- Metal corners and details -->
  <rect x="4" y="8" width="2" height="16" fill="#B8860B"/>
  <rect x="26" y="8" width="2" height="16" fill="#B8860B"/>
  
  <!-- Lock detail -->
  <rect x="14" y="10" width="4" height="4" fill="#B8860B"/>
  <rect x="15" y="11" width="2" height="2" fill="#FFD700"/>
  
  <!-- Pixel glints/highlights -->
  <rect x="6" y="10" width="1" height="1" fill="#FFF8DC" opacity="0.7"/>
  <rect x="25" y="10" width="1" height="1" fill="#FFF8DC" opacity="0.7"/>
  <rect x="7" y="15" width="1" height="1" fill="#FFF8DC" opacity="0.7"/>
  <rect x="10" y="17" width="2" height="2" fill="#FFD700" opacity="0.5"/>
  <rect x="20" y="18" width="2" height="2" fill="#FFD700" opacity="0.5"/>
  
  <!-- Shadow beneath chest -->
  <ellipse cx="16" cy="25" rx="12" ry="2" fill="#000000" opacity="0.3"/>
</svg>
