<?xml version="1.0" encoding="UTF-8"?>
<svg width="32" height="32" version="1.1" viewBox="0 0 32 32" xmlns="http://www.w3.org/2000/svg">
  <!-- Gold Coin -->
  <g id="coin">
    <!-- Coin body -->
    <circle cx="16" cy="16" r="14" fill="#FFC107" stroke="#FFA000" stroke-width="1"/>
    <circle cx="16" cy="16" r="12" fill="#FFCA28" stroke="#FFA000" stroke-width="0.5"/>
    
    <!-- Texture details -->
    <path d="M10,16 C10,12.7 12.7,10 16,10 C19.3,10 22,12.7 22,16" fill="none" stroke="#FFA000" stroke-width="1.5"/>
    <path d="M22,16 C22,19.3 19.3,22 16,22 C12.7,22 10,19.3 10,16" fill="none" stroke="#FFA000" stroke-width="1.5"/>
    
    <!-- Highlight -->
    <ellipse cx="12" cy="12" rx="4" ry="3" fill="#FFE082" opacity="0.6"/>
  </g>
  
  <!-- Silver Coin (Second coin in sprite sheet) -->
  <g id="silver-coin" transform="translate(32, 0)">
    <!-- Coin body -->
    <circle cx="16" cy="16" r="14" fill="#BDBDBD" stroke="#9E9E9E" stroke-width="1"/>
    <circle cx="16" cy="16" r="12" fill="#E0E0E0" stroke="#9E9E9E" stroke-width="0.5"/>
    
    <!-- Texture details -->
    <path d="M10,16 C10,12.7 12.7,10 16,10 C19.3,10 22,12.7 22,16" fill="none" stroke="#9E9E9E" stroke-width="1.5"/>
    <path d="M22,16 C22,19.3 19.3,22 16,22 C12.7,22 10,19.3 10,16" fill="none" stroke="#9E9E9E" stroke-width="1.5"/>
    
    <!-- Highlight -->
    <ellipse cx="12" cy="12" rx="4" ry="3" fill="#F5F5F5" opacity="0.6"/>
  </g>
</svg>