<?xml version="1.0" encoding="UTF-8"?>
<svg width="32" height="32" version="1.1" viewBox="0 0 32 32" xmlns="http://www.w3.org/2000/svg">
  <!-- Health Potion -->
  <g id="health-potion">
    <!-- Bottle -->
    <path d="M12,4 L20,4 L20,12 C20,16.4183 16.4183,20 12,20 L12,4 Z" fill="#E91E63" stroke="#C2185B" stroke-width="1"/>
    <path d="M20,4 L20,12 C20,16.4183 16.4183,20 12,20 L12,12 C12,7.58172 15.5817,4 20,4 Z" fill="#F06292" stroke="#C2185B" stroke-width="1"/>
    
    <!-- Cork -->
    <rect x="13" y="1" width="6" height="3" rx="1" fill="#8D6E63" stroke="#6D4C41" stroke-width="1"/>
    
    <!-- Highlight -->
    <ellipse cx="14" cy="10" rx="1.5" ry="2" fill="#F8BBD0" opacity="0.6"/>
    
    <!-- Bubbles -->
    <circle cx="16" cy="13" r="1" fill="#F8BBD0" opacity="0.8"/>
    <circle cx="14" cy="16" r="0.8" fill="#F8BBD0" opacity="0.8"/>
    <circle cx="17" cy="17" r="0.6" fill="#F8BBD0" opacity="0.8"/>
  </g>
  
  <!-- Mana Potion (Second potion in sprite sheet) -->
  <g id="mana-potion" transform="translate(0, 20)">
    <!-- Bottle -->
    <path d="M12,4 L20,4 L20,12 C20,16.4183 16.4183,20 12,20 L12,4 Z" fill="#2196F3" stroke="#1976D2" stroke-width="1"/>
    <path d="M20,4 L20,12 C20,16.4183 16.4183,20 12,20 L12,12 C12,7.58172 15.5817,4 20,4 Z" fill="#64B5F6" stroke="#1976D2" stroke-width="1"/>
    
    <!-- Cork -->
    <rect x="13" y="1" width="6" height="3" rx="1" fill="#8D6E63" stroke="#6D4C41" stroke-width="1"/>
    
    <!-- Highlight -->
    <ellipse cx="14" cy="10" rx="1.5" ry="2" fill="#BBDEFB" opacity="0.6"/>
    
    <!-- Bubbles -->
    <circle cx="16" cy="13" r="1" fill="#BBDEFB" opacity="0.8"/>
    <circle cx="14" cy="16" r="0.8" fill="#BBDEFB" opacity="0.8"/>
    <circle cx="17" cy="17" r="0.6" fill="#BBDEFB" opacity="0.8"/>
  </g>
</svg>