<?xml version="1.0" encoding="UTF-8"?>
<svg width="50" height="50" viewBox="0 0 50 50" xmlns="http://www.w3.org/2000/svg">
  <!-- Pixel Art Treasure Chest -->
  <!-- Chest Base -->
  <rect x="5" y="15" width="40" height="30" fill="#8B4513" />
  
  <!-- Chest Lid -->
  <rect x="5" y="5" width="40" height="10" fill="#A0522D" />
  
  <!-- Chest Front Face -->
  <rect x="5" y="15" width="40" height="5" fill="#A0522D" />
  
  <!-- Chest Details -->
  <rect x="20" y="15" width="10" height="5" fill="#FFD700" /> <!-- Lock -->
  <rect x="10" y="20" width="5" height="5" fill="#A0522D" /> <!-- Panel -->
  <rect x="35" y="20" width="5" height="5" fill="#A0522D" /> <!-- Panel -->
  <rect x="10" y="30" width="5" height="5" fill="#A0522D" /> <!-- Panel -->
  <rect x="35" y="30" width="5" height="5" fill="#A0522D" /> <!-- Panel -->
  
  <!-- Chest Lid Details -->
  <rect x="10" y="8" width="30" height="4" fill="#8B4513" />
  
  <!-- Metal Edges -->
  <rect x="5" y="5" width="40" height="2" fill="#FFD700" />
  <rect x="5" y="13" width="40" height="2" fill="#FFD700" />
  <rect x="5" y="15" width="2" height="30" fill="#FFD700" />
  <rect x="43" y="15" width="2" height="30" fill="#FFD700" />
  <rect x="5" y="43" width="40" height="2" fill="#FFD700" />
  
  <!-- Treasure (visible from top) -->
  <circle cx="20" cy="25" r="3" fill="#FFD700" />
  <circle cx="30" cy="28" r="3" fill="#FFD700" />
  <rect x="15" y="33" width="20" height="7" fill="#FFD700" />
</svg>