<?xml version="1.0" encoding="UTF-8" standalone="no"?>
<svg width="128" height="32" viewBox="0 0 128 32" fill="none" xmlns="http://www.w3.org/2000/svg">
  <!-- Player (Down) -->
  <rect x="0" y="0" width="32" height="32" fill="none"/>
  <rect x="12" y="12" width="8" height="16" fill="#6b4423"/> <!-- Body -->
  <circle cx="16" cy="6" r="6" fill="#ffdbac"/> <!-- Head -->
  <rect x="8" y="22" width="4" height="8" fill="#3e95c9"/> <!-- Left Leg -->
  <rect x="20" y="22" width="4" height="8" fill="#3e95c9"/> <!-- Right Leg -->
  <rect x="6" y="14" width="4" height="8" fill="#3e95c9"/> <!-- Left Arm -->
  <rect x="22" y="14" width="4" height="8" fill="#3e95c9"/> <!-- Right Arm -->
  <ellipse cx="14" cy="6" rx="1" ry="1" fill="#000000"/> <!-- Left Eye -->
  <ellipse cx="18" cy="6" rx="1" ry="1" fill="#000000"/> <!-- Right Eye -->
  <path d="M14,9 Q16,11 18,9" stroke="#000000" stroke-width="1" fill="none"/> <!-- Mouth -->

  <!-- Player (Right) -->
  <rect x="32" y="0" width="32" height="32" fill="none"/>
  <rect x="44" y="12" width="8" height="16" fill="#6b4423"/> <!-- Body -->
  <circle cx="48" cy="6" r="6" fill="#ffdbac"/> <!-- Head -->
  <rect x="40" y="22" width="4" height="8" fill="#3e95c9"/> <!-- Left Leg -->
  <rect x="52" y="22" width="4" height="8" fill="#3e95c9"/> <!-- Right Leg -->
  <rect x="46" y="14" width="10" height="4" fill="#3e95c9"/> <!-- Right Arm -->
  <ellipse cx="50" cy="6" rx="1" ry="1" fill="#000000"/> <!-- Right Eye -->
  <path d="M50,9 Q52,9 52,8" stroke="#000000" stroke-width="1" fill="none"/> <!-- Mouth -->

  <!-- Player (Up) -->
  <rect x="64" y="0" width="32" height="32" fill="none"/>
  <rect x="76" y="12" width="8" height="16" fill="#6b4423"/> <!-- Body -->
  <circle cx="80" cy="6" r="6" fill="#ffdbac"/> <!-- Head -->
  <rect x="72" y="22" width="4" height="8" fill="#3e95c9"/> <!-- Left Leg -->
  <rect x="84" y="22" width="4" height="8" fill="#3e95c9"/> <!-- Right Leg -->
  <rect x="70" y="14" width="4" height="8" fill="#3e95c9"/> <!-- Left Arm -->
  <rect x="86" y="14" width="4" height="8" fill="#3e95c9"/> <!-- Right Arm -->

  <!-- Player (Left) -->
  <rect x="96" y="0" width="32" height="32" fill="none"/>
  <rect x="108" y="12" width="8" height="16" fill="#6b4423"/> <!-- Body -->
  <circle cx="112" cy="6" r="6" fill="#ffdbac"/> <!-- Head -->
  <rect x="104" y="22" width="4" height="8" fill="#3e95c9"/> <!-- Left Leg -->
  <rect x="116" y="22" width="4" height="8" fill="#3e95c9"/> <!-- Right Leg -->
  <rect x="102" y="14" width="10" height="4" fill="#3e95c9"/> <!-- Left Arm -->
  <ellipse cx="110" cy="6" rx="1" ry="1" fill="#000000"/> <!-- Left Eye -->
  <path d="M108,9 Q110,9 110,8" stroke="#000000" stroke-width="1" fill="none"/> <!-- Mouth -->
</svg>