<?xml version="1.0" encoding="UTF-8"?>
<svg width="96" height="128" version="1.1" viewBox="0 0 96 128" xmlns="http://www.w3.org/2000/svg">
  <!-- Player character sprite sheet - Down, Left, Right, Up (4 poses each) -->
  
  <!-- Down - Frame 1 -->
  <g id="down-1">
    <!-- Body -->
    <rect x="4" y="4" width="16" height="24" rx="4" fill="#3F51B5"/>
    <!-- Head -->
    <circle cx="12" cy="4" r="4" fill="#FFCCBC"/>
    <!-- Face -->
    <circle cx="10" cy="3" r="0.5" fill="#000000"/>
    <circle cx="14" cy="3" r="0.5" fill="#000000"/>
    <path d="M11,5 Q12,6 13,5" stroke="#000000" stroke-width="0.5" fill="none"/>
    <!-- Arms -->
    <rect x="2" y="8" width="4" height="8" rx="2" fill="#FFCCBC"/>
    <rect x="18" y="8" width="4" height="8" rx="2" fill="#FFCCBC"/>
    <!-- Legs -->
    <rect x="6" y="28" width="4" height="8" rx="2" fill="#3949AB"/>
    <rect x="14" y="28" width="4" height="8" rx="2" fill="#3949AB"/>
  </g>
  
  <!-- Down - Frame 2 -->
  <g id="down-2" transform="translate(24, 0)">
    <!-- Body -->
    <rect x="4" y="4" width="16" height="24" rx="4" fill="#3F51B5"/>
    <!-- Head -->
    <circle cx="12" cy="4" r="4" fill="#FFCCBC"/>
    <!-- Face -->
    <circle cx="10" cy="3" r="0.5" fill="#000000"/>
    <circle cx="14" cy="3" r="0.5" fill="#000000"/>
    <path d="M11,5 Q12,6 13,5" stroke="#000000" stroke-width="0.5" fill="none"/>
    <!-- Arms -->
    <rect x="2" y="8" width="4" height="10" rx="2" fill="#FFCCBC" transform="rotate(-15, 2, 8)"/>
    <rect x="18" y="8" width="4" height="10" rx="2" fill="#FFCCBC" transform="rotate(15, 22, 8)"/>
    <!-- Legs -->
    <rect x="6" y="28" width="4" height="8" rx="2" fill="#3949AB" transform="rotate(-10, 6, 28)"/>
    <rect x="14" y="28" width="4" height="8" rx="2" fill="#3949AB" transform="rotate(10, 18, 28)"/>
  </g>
  
  <!-- Down - Frame 3 -->
  <g id="down-3" transform="translate(48, 0)">
    <!-- Body -->
    <rect x="4" y="4" width="16" height="24" rx="4" fill="#3F51B5"/>
    <!-- Head -->
    <circle cx="12" cy="4" r="4" fill="#FFCCBC"/>
    <!-- Face -->
    <circle cx="10" cy="3" r="0.5" fill="#000000"/>
    <circle cx="14" cy="3" r="0.5" fill="#000000"/>
    <path d="M11,5 Q12,6 13,5" stroke="#000000" stroke-width="0.5" fill="none"/>
    <!-- Arms -->
    <rect x="2" y="8" width="4" height="8" rx="2" fill="#FFCCBC"/>
    <rect x="18" y="8" width="4" height="8" rx="2" fill="#FFCCBC"/>
    <!-- Legs -->
    <rect x="6" y="28" width="4" height="8" rx="2" fill="#3949AB"/>
    <rect x="14" y="28" width="4" height="8" rx="2" fill="#3949AB"/>
  </g>
  
  <!-- Down - Frame 4 -->
  <g id="down-4" transform="translate(72, 0)">
    <!-- Body -->
    <rect x="4" y="4" width="16" height="24" rx="4" fill="#3F51B5"/>
    <!-- Head -->
    <circle cx="12" cy="4" r="4" fill="#FFCCBC"/>
    <!-- Face -->
    <circle cx="10" cy="3" r="0.5" fill="#000000"/>
    <circle cx="14" cy="3" r="0.5" fill="#000000"/>
    <path d="M11,5 Q12,6 13,5" stroke="#000000" stroke-width="0.5" fill="none"/>
    <!-- Arms -->
    <rect x="2" y="8" width="4" height="10" rx="2" fill="#FFCCBC" transform="rotate(15, 2, 8)"/>
    <rect x="18" y="8" width="4" height="10" rx="2" fill="#FFCCBC" transform="rotate(-15, 22, 8)"/>
    <!-- Legs -->
    <rect x="6" y="28" width="4" height="8" rx="2" fill="#3949AB" transform="rotate(10, 6, 28)"/>
    <rect x="14" y="28" width="4" height="8" rx="2" fill="#3949AB" transform="rotate(-10, 18, 28)"/>
  </g>
  
  <!-- Left - Frame 1 -->
  <g id="left-1" transform="translate(0, 32)">
    <!-- Body -->
    <rect x="4" y="4" width="16" height="24" rx="4" fill="#3F51B5"/>
    <!-- Head -->
    <circle cx="12" cy="4" r="4" fill="#FFCCBC"/>
    <!-- Face -->
    <circle cx="10" cy="3" r="0.5" fill="#000000"/>
    <path d="M9,5 Q9.5,6 10,5" stroke="#000000" stroke-width="0.5" fill="none"/>
    <!-- Arms -->
    <rect x="2" y="8" width="4" height="8" rx="2" fill="#FFCCBC"/>
    <rect x="16" y="10" width="4" height="8" rx="2" fill="#FFCCBC" transform="rotate(30, 16, 10)"/>
    <!-- Legs -->
    <rect x="6" y="28" width="4" height="8" rx="2" fill="#3949AB"/>
    <rect x="14" y="28" width="4" height="8" rx="2" fill="#3949AB"/>
  </g>
  
  <!-- Left - Frame 2 -->
  <g id="left-2" transform="translate(24, 32)">
    <!-- Body -->
    <rect x="4" y="4" width="16" height="24" rx="4" fill="#3F51B5"/>
    <!-- Head -->
    <circle cx="12" cy="4" r="4" fill="#FFCCBC"/>
    <!-- Face -->
    <circle cx="10" cy="3" r="0.5" fill="#000000"/>
    <path d="M9,5 Q9.5,6 10,5" stroke="#000000" stroke-width="0.5" fill="none"/>
    <!-- Arms -->
    <rect x="2" y="8" width="4" height="10" rx="2" fill="#FFCCBC" transform="rotate(-15, 2, 8)"/>
    <rect x="16" y="10" width="4" height="10" rx="2" fill="#FFCCBC" transform="rotate(15, 16, 10)"/>
    <!-- Legs -->
    <rect x="6" y="28" width="4" height="8" rx="2" fill="#3949AB" transform="rotate(-15, 6, 28)"/>
    <rect x="14" y="28" width="4" height="8" rx="2" fill="#3949AB" transform="rotate(15, 14, 28)"/>
  </g>
  
  <!-- Left - Frame 3 -->
  <g id="left-3" transform="translate(48, 32)">
    <!-- Body -->
    <rect x="4" y="4" width="16" height="24" rx="4" fill="#3F51B5"/>
    <!-- Head -->
    <circle cx="12" cy="4" r="4" fill="#FFCCBC"/>
    <!-- Face -->
    <circle cx="10" cy="3" r="0.5" fill="#000000"/>
    <path d="M9,5 Q9.5,6 10,5" stroke="#000000" stroke-width="0.5" fill="none"/>
    <!-- Arms -->
    <rect x="2" y="8" width="4" height="8" rx="2" fill="#FFCCBC"/>
    <rect x="16" y="12" width="4" height="8" rx="2" fill="#FFCCBC" transform="rotate(-30, 16, 12)"/>
    <!-- Legs -->
    <rect x="6" y="28" width="4" height="8" rx="2" fill="#3949AB"/>
    <rect x="14" y="28" width="4" height="8" rx="2" fill="#3949AB"/>
  </g>
  
  <!-- Left - Frame 4 -->
  <g id="left-4" transform="translate(72, 32)">
    <!-- Body -->
    <rect x="4" y="4" width="16" height="24" rx="4" fill="#3F51B5"/>
    <!-- Head -->
    <circle cx="12" cy="4" r="4" fill="#FFCCBC"/>
    <!-- Face -->
    <circle cx="10" cy="3" r="0.5" fill="#000000"/>
    <path d="M9,5 Q9.5,6 10,5" stroke="#000000" stroke-width="0.5" fill="none"/>
    <!-- Arms -->
    <rect x="2" y="8" width="4" height="10" rx="2" fill="#FFCCBC" transform="rotate(15, 2, 8)"/>
    <rect x="16" y="10" width="4" height="10" rx="2" fill="#FFCCBC" transform="rotate(-15, 16, 10)"/>
    <!-- Legs -->
    <rect x="6" y="28" width="4" height="8" rx="2" fill="#3949AB" transform="rotate(15, 6, 28)"/>
    <rect x="14" y="28" width="4" height="8" rx="2" fill="#3949AB" transform="rotate(-15, 14, 28)"/>
  </g>
  
  <!-- Right - Frame 1 -->
  <g id="right-1" transform="translate(0, 64)">
    <!-- Body -->
    <rect x="4" y="4" width="16" height="24" rx="4" fill="#3F51B5"/>
    <!-- Head -->
    <circle cx="12" cy="4" r="4" fill="#FFCCBC"/>
    <!-- Face -->
    <circle cx="14" cy="3" r="0.5" fill="#000000"/>
    <path d="M14,5 Q14.5,6 15,5" stroke="#000000" stroke-width="0.5" fill="none"/>
    <!-- Arms -->
    <rect x="4" y="10" width="4" height="8" rx="2" fill="#FFCCBC" transform="rotate(-30, 4, 10)"/>
    <rect x="18" y="8" width="4" height="8" rx="2" fill="#FFCCBC"/>
    <!-- Legs -->
    <rect x="6" y="28" width="4" height="8" rx="2" fill="#3949AB"/>
    <rect x="14" y="28" width="4" height="8" rx="2" fill="#3949AB"/>
  </g>
  
  <!-- Right - Frame 2 -->
  <g id="right-2" transform="translate(24, 64)">
    <!-- Body -->
    <rect x="4" y="4" width="16" height="24" rx="4" fill="#3F51B5"/>
    <!-- Head -->
    <circle cx="12" cy="4" r="4" fill="#FFCCBC"/>
    <!-- Face -->
    <circle cx="14" cy="3" r="0.5" fill="#000000"/>
    <path d="M14,5 Q14.5,6 15,5" stroke="#000000" stroke-width="0.5" fill="none"/>
    <!-- Arms -->
    <rect x="4" y="10" width="4" height="10" rx="2" fill="#FFCCBC" transform="rotate(-15, 4, 10)"/>
    <rect x="18" y="8" width="4" height="10" rx="2" fill="#FFCCBC" transform="rotate(15, 18, 8)"/>
    <!-- Legs -->
    <rect x="6" y="28" width="4" height="8" rx="2" fill="#3949AB" transform="rotate(-15, 6, 28)"/>
    <rect x="14" y="28" width="4" height="8" rx="2" fill="#3949AB" transform="rotate(15, 14, 28)"/>
  </g>
  
  <!-- Right - Frame 3 -->
  <g id="right-3" transform="translate(48, 64)">
    <!-- Body -->
    <rect x="4" y="4" width="16" height="24" rx="4" fill="#3F51B5"/>
    <!-- Head -->
    <circle cx="12" cy="4" r="4" fill="#FFCCBC"/>
    <!-- Face -->
    <circle cx="14" cy="3" r="0.5" fill="#000000"/>
    <path d="M14,5 Q14.5,6 15,5" stroke="#000000" stroke-width="0.5" fill="none"/>
    <!-- Arms -->
    <rect x="4" y="12" width="4" height="8" rx="2" fill="#FFCCBC" transform="rotate(30, 4, 12)"/>
    <rect x="18" y="8" width="4" height="8" rx="2" fill="#FFCCBC"/>
    <!-- Legs -->
    <rect x="6" y="28" width="4" height="8" rx="2" fill="#3949AB"/>
    <rect x="14" y="28" width="4" height="8" rx="2" fill="#3949AB"/>
  </g>
  
  <!-- Right - Frame 4 -->
  <g id="right-4" transform="translate(72, 64)">
    <!-- Body -->
    <rect x="4" y="4" width="16" height="24" rx="4" fill="#3F51B5"/>
    <!-- Head -->
    <circle cx="12" cy="4" r="4" fill="#FFCCBC"/>
    <!-- Face -->
    <circle cx="14" cy="3" r="0.5" fill="#000000"/>
    <path d="M14,5 Q14.5,6 15,5" stroke="#000000" stroke-width="0.5" fill="none"/>
    <!-- Arms -->
    <rect x="4" y="10" width="4" height="10" rx="2" fill="#FFCCBC" transform="rotate(15, 4, 10)"/>
    <rect x="18" y="8" width="4" height="10" rx="2" fill="#FFCCBC" transform="rotate(-15, 18, 8)"/>
    <!-- Legs -->
    <rect x="6" y="28" width="4" height="8" rx="2" fill="#3949AB" transform="rotate(15, 6, 28)"/>
    <rect x="14" y="28" width="4" height="8" rx="2" fill="#3949AB" transform="rotate(-15, 14, 28)"/>
  </g>
  
  <!-- Up - Frame 1 -->
  <g id="up-1" transform="translate(0, 96)">
    <!-- Body -->
    <rect x="4" y="4" width="16" height="24" rx="4" fill="#3F51B5"/>
    <!-- Head (back view) -->
    <circle cx="12" cy="4" r="4" fill="#C5CAE9"/>
    <!-- Arms -->
    <rect x="2" y="8" width="4" height="8" rx="2" fill="#FFCCBC"/>
    <rect x="18" y="8" width="4" height="8" rx="2" fill="#FFCCBC"/>
    <!-- Legs -->
    <rect x="6" y="28" width="4" height="8" rx="2" fill="#3949AB"/>
    <rect x="14" y="28" width="4" height="8" rx="2" fill="#3949AB"/>
  </g>
  
  <!-- Up - Frame 2 -->
  <g id="up-2" transform="translate(24, 96)">
    <!-- Body -->
    <rect x="4" y="4" width="16" height="24" rx="4" fill="#3F51B5"/>
    <!-- Head (back view) -->
    <circle cx="12" cy="4" r="4" fill="#C5CAE9"/>
    <!-- Arms -->
    <rect x="2" y="8" width="4" height="10" rx="2" fill="#FFCCBC" transform="rotate(-15, 2, 8)"/>
    <rect x="18" y="8" width="4" height="10" rx="2" fill="#FFCCBC" transform="rotate(15, 22, 8)"/>
    <!-- Legs -->
    <rect x="6" y="28" width="4" height="8" rx="2" fill="#3949AB" transform="rotate(-10, 6, 28)"/>
    <rect x="14" y="28" width="4" height="8" rx="2" fill="#3949AB" transform="rotate(10, 18, 28)"/>
  </g>
  
  <!-- Up - Frame 3 -->
  <g id="up-3" transform="translate(48, 96)">
    <!-- Body -->
    <rect x="4" y="4" width="16" height="24" rx="4" fill="#3F51B5"/>
    <!-- Head (back view) -->
    <circle cx="12" cy="4" r="4" fill="#C5CAE9"/>
    <!-- Arms -->
    <rect x="2" y="8" width="4" height="8" rx="2" fill="#FFCCBC"/>
    <rect x="18" y="8" width="4" height="8" rx="2" fill="#FFCCBC"/>
    <!-- Legs -->
    <rect x="6" y="28" width="4" height="8" rx="2" fill="#3949AB"/>
    <rect x="14" y="28" width="4" height="8" rx="2" fill="#3949AB"/>
  </g>
  
  <!-- Up - Frame 4 -->
  <g id="up-4" transform="translate(72, 96)">
    <!-- Body -->
    <rect x="4" y="4" width="16" height="24" rx="4" fill="#3F51B5"/>
    <!-- Head (back view) -->
    <circle cx="12" cy="4" r="4" fill="#C5CAE9"/>
    <!-- Arms -->
    <rect x="2" y="8" width="4" height="10" rx="2" fill="#FFCCBC" transform="rotate(15, 2, 8)"/>
    <rect x="18" y="8" width="4" height="10" rx="2" fill="#FFCCBC" transform="rotate(-15, 22, 8)"/>
    <!-- Legs -->
    <rect x="6" y="28" width="4" height="8" rx="2" fill="#3949AB" transform="rotate(10, 6, 28)"/>
    <rect x="14" y="28" width="4" height="8" rx="2" fill="#3949AB" transform="rotate(-10, 18, 28)"/>
  </g>
</svg>