<?xml version="1.0" encoding="UTF-8"?>
<svg width="50px" height="60px" viewBox="0 0 50 60" version="1.1" xmlns="http://www.w3.org/2000/svg">
    <title>Doll Icon 3</title>
    <g stroke="none" stroke-width="1" fill="none" fill-rule="evenodd">
        <!-- Doll Body -->
        <path d="M20,30 C18,32 16,35 16,40 C16,45 18,50 25,50 C32,50 34,45 34,40 C34,35 32,32 30,30 L20,30 Z" fill="#FFE1FF"></path>
        
        <!-- Doll Head -->
        <circle cx="25" cy="20" r="10" fill="#FFCCFA"></circle>
        
        <!-- Doll Face -->
        <circle cx="22" cy="18" r="1" fill="#CC7FB5"></circle>
        <circle cx="28" cy="18" r="1" fill="#CC7FB5"></circle>
        <path d="M23,22 C25,24 27,22 27,22" stroke="#CC7FB5" stroke-width="1" stroke-linecap="round"></path>
        
        <!-- Doll Hair -->
        <path d="M15,20 C13,15 15,10 25,10 C35,10 37,15 35,20" fill="#FFB5D0"></path>
        <path d="M15,20 L13,26 M35,20 L37,26" stroke="#FFB5D0" stroke-width="2" stroke-linecap="round"></path>
        
        <!-- Doll Dress Details -->
        <path d="M20,34 L30,34 M20,38 L30,38 M20,42 L30,42" stroke="#FFDAE8" stroke-width="1" stroke-linecap="round"></path>
        
        <!-- Doll Arms -->
        <path d="M16,32 C14,32 10,36 12,40 M34,32 C36,32 40,36 38,40" stroke="#FFCCFA" stroke-width="2" stroke-linecap="round"></path>
        
        <!-- Doll Legs -->
        <rect x="20" y="50" width="4" height="8" rx="2" fill="#FFCCFA"></rect>
        <rect x="26" y="50" width="4" height="8" rx="2" fill="#FFCCFA"></rect>
        
        <!-- Doll Hair Accessories -->
        <circle cx="18" cy="14" r="2" fill="#B5EAFF"></circle>
        <circle cx="32" cy="14" r="2" fill="#B5EAFF"></circle>
    </g>
</svg>