<?xml version="1.0" encoding="UTF-8"?>
<svg width="32px" height="32px" viewBox="0 0 32 32" version="1.1" xmlns="http://www.w3.org/2000/svg">
    <title>Pixel Heart</title>
    <g stroke="none" stroke-width="1" fill="none" fill-rule="evenodd">
        <path d="M16,28 C16,28 4,18 4,10 C4,6 7,4 10,4 C13,4 16,6 16,10 C16,6 19,4 22,4 C25,4 28,6 28,10 C28,18 16,28 16,28 Z" fill="#FF9EC4"></path>
        <path d="M16,26 C16,26 6,17 6,10 C6,7 8,6 10,6 C12,6 14,7 16,10 C18,7 20,6 22,6 C24,6 26,7 26,10 C26,17 16,26 16,26 Z" fill="#FFD1DC"></path>
        <path d="M16,24 C16,24 8,16 8,10 C8,8 9,8 10,8 C11,8 12,8 16,14 C20,8 21,8 22,8 C23,8 24,8 24,10 C24,16 16,24 16,24 Z" fill="#FFE6F7"></path>
    </g>
</svg>