<?xml version="1.0" encoding="UTF-8"?>
<svg width="40px" height="40px" viewBox="0 0 40 40" version="1.1" xmlns="http://www.w3.org/2000/svg">
    <title>Moon Icon</title>
    <g stroke="none" stroke-width="1" fill="none" fill-rule="evenodd">
        <!-- Moon Body -->
        <path d="M25,7 C15,7 10,17 10,23 C10,31 17,35 25,35 C19,35 13,30 13,23 C13,16 19,10 25,10 C22,8 19,7 25,7 Z" fill="#D8B5FF"></path>
        
        <!-- Moon Face -->
        <circle cx="19" cy="19" r="1.5" fill="#7C7CD8"></circle>
        <circle cx="26" cy="19" r="1.5" fill="#7C7CD8"></circle>
        
        <!-- Sleeping Z's -->
        <path d="M25,23 C25,23 26,25 22,25" stroke="#7C7CD8" stroke-width="1" stroke-linecap="round"></path>
        
        <!-- Stars around moon -->
        <path d="M33,12 L34,14 L36,14 L34.5,15.5 L35,18 L33,16.5 L31,18 L31.5,15.5 L30,14 L32,14 Z" fill="#FFB7FF"></path>
        <path d="M7,25 L8,27 L10,27 L8.5,28.5 L9,31 L7,29.5 L5,31 L5.5,28.5 L4,27 L6,27 Z" fill="#FFB7FF"></path>
        <path d="M31,28 L32,30 L34,30 L32.5,31.5 L33,34 L31,32.5 L29,34 L29.5,31.5 L28,30 L30,30 Z" fill="#FFB7FF"></path>
        
        <!-- Tiny sparkles -->
        <circle cx="36" cy="22" r="1" fill="#FFEFFF"></circle>
        <circle cx="8" cy="12" r="1" fill="#FFEFFF"></circle>
    </g>
</svg>