<?xml version="1.0" encoding="UTF-8"?>
<svg width="40px" height="40px" viewBox="0 0 40 40" version="1.1" xmlns="http://www.w3.org/2000/svg">
    <title>Music Note Icon</title>
    <g stroke="none" stroke-width="1" fill="none" fill-rule="evenodd">
        <!-- Music Note Head -->
        <ellipse cx="10" cy="28" rx="6" ry="4" fill="#B5B9FF"></ellipse>
        
        <!-- Music Note Stem -->
        <path d="M10,28 L10,10 L30,7 L30,25" stroke="#B5EAFF" stroke-width="2" fill="none"></path>
        
        <!-- Second Note Head -->
        <ellipse cx="30" cy="25" rx="6" ry="4" fill="#B5B9FF"></ellipse>
        
        <!-- Decorative Hearts -->
        <path d="M15,14 C15,11 18,11 18,13 C18,11 21,11 21,14 L18,17 L15,14 Z" fill="#FFB5E8"></path>
        <path d="M25,11 C25,8 28,8 28,10 C28,8 31,8 31,11 L28,14 L25,11 Z" fill="#FFB5E8"></path>
        
        <!-- Musical Sparkles -->
        <circle cx="22" cy="20" r="1" fill="#FFC0CB"></circle>
        <circle cx="26" cy="16" r="1" fill="#FFC0CB"></circle>
        <circle cx="16" cy="8" r="1" fill="#FFC0CB"></circle>
    </g>
</svg>