<?xml version="1.0" encoding="UTF-8"?>
<svg width="32px" height="32px" viewBox="0 0 32 32" version="1.1" xmlns="http://www.w3.org/2000/svg">
    <title>Pixel Cat</title>
    <g stroke="none" stroke-width="1" fill="none" fill-rule="evenodd">
        <!-- Cat face -->
        <rect fill="#FFE6F7" x="10" y="8" width="12" height="12"></rect>
        
        <!-- Ears -->
        <polygon fill="#FFB0D9" points="10,8 6,4 10,4"></polygon>
        <polygon fill="#FFB0D9" points="22,8 26,4 22,4"></polygon>
        <polygon fill="#FF9EC4" points="9,7 7,5 9,5"></polygon>
        <polygon fill="#FF9EC4" points="23,7 25,5 23,5"></polygon>
        
        <!-- Eyes -->
        <rect fill="#614C82" x="12" y="12" width="2" height="2"></rect>
        <rect fill="#614C82" x="18" y="12" width="2" height="2"></rect>
        <rect fill="#FFFFFF" x="12" y="12" width="1" height="1"></rect>
        <rect fill="#FFFFFF" x="18" y="12" width="1" height="1"></rect>
        
        <!-- Nose -->
        <rect fill="#FF9EC4" x="15" y="14" width="2" height="2"></rect>
        
        <!-- Mouth -->
        <rect fill="#614C82" x="14" y="17" width="1" height="1"></rect>
        <rect fill="#614C82" x="17" y="17" width="1" height="1"></rect>
        <rect fill="#614C82" x="15" y="18" width="2" height="1"></rect>
        
        <!-- Whiskers -->
        <rect fill="#FFB0D9" x="5" y="14" width="5" height="1"></rect>
        <rect fill="#FFB0D9" x="5" y="16" width="5" height="1"></rect>
        <rect fill="#FFB0D9" x="22" y="14" width="5" height="1"></rect>
        <rect fill="#FFB0D9" x="22" y="16" width="5" height="1"></rect>
        
        <!-- Animation elements -->
        <rect fill="#FFE6F7" x="12" y="22" width="8" height="4"></rect>
        <rect fill="#FFE6F7" x="14" y="20" width="4" height="2"></rect>
        <rect fill="#FFB0D9" x="14" y="26" width="2" height="2"></rect>
        <rect fill="#FFB0D9" x="16" y="26" width="2" height="2"></rect>
    </g>
</svg>