<?xml version="1.0" encoding="UTF-8"?>
<svg width="800" height="400" viewBox="0 0 800 400" xmlns="http://www.w3.org/2000/svg">
  <!-- Pixel Art Background -->
  <!-- Sky -->
  <rect x="0" y="0" width="800" height="400" fill="#87CEEB" />
  
  <!-- Sun -->
  <circle cx="700" cy="80" r="40" fill="#FFD700" />
  
  <!-- Distant Mountains -->
  <polygon points="0,250 100,180 200,220 300,150 400,200 500,170 600,240 700,180 800,250 800,400 0,400" fill="#6B8E23" />
  
  <!-- Closer Hills -->
  <polygon points="0,280 50,260 100,290 150,270 200,290 250,280 300,270 350,290 400,270 450,290 500,270 550,290 600,280 650,260 700,290 750,270 800,280 800,400 0,400" fill="#8FBC8F" />
  
  <!-- Clouds -->
  <ellipse cx="100" cy="100" rx="50" ry="20" fill="#FFFFFF" />
  <ellipse cx="300" cy="120" rx="40" ry="15" fill="#FFFFFF" />
  <ellipse cx="500" cy="80" rx="60" ry="25" fill="#FFFFFF" />
  
  <!-- Trees in Distance -->
  <rect x="150" y="240" width="10" height="30" fill="#8B4513" />
  <circle cx="155" cy="230" r="15" fill="#006400" />
  
  <rect x="350" y="230" width="10" height="40" fill="#8B4513" />
  <circle cx="355" cy="220" r="20" fill="#006400" />
  
  <rect x="550" y="250" width="10" height="30" fill="#8B4513" />
  <circle cx="555" cy="240" r="15" fill="#006400" />
  
  <rect x="650" y="240" width="10" height="40" fill="#8B4513" />
  <circle cx="655" cy="230" r="15" fill="#006400" />
</svg>