<?xml version="1.0" encoding="UTF-8"?>
<svg width="50" height="80" viewBox="0 0 50 80" xmlns="http://www.w3.org/2000/svg">
  <!-- Pixel Art Character - Idle -->
  <!-- Head -->
  <rect x="15" y="5" width="20" height="20" fill="#FFD39B" />
  
  <!-- Hair -->
  <rect x="15" y="5" width="20" height="5" fill="#8B4513" />
  <rect x="15" y="5" width="5" height="10" fill="#8B4513" />
  
  <!-- Eyes -->
  <rect x="20" y="15" width="5" height="5" fill="#000000" />
  <rect x="35" y="15" width="5" height="5" fill="#000000" />
  
  <!-- Mouth -->
  <rect x="25" y="20" width="10" height="2" fill="#FF6347" />
  
  <!-- Body -->
  <rect x="15" y="25" width="20" height="30" fill="#6495ED" />
  
  <!-- Arms -->
  <rect x="5" y="25" width="10" height="5" fill="#FFD39B" />
  <rect x="35" y="25" width="10" height="5" fill="#FFD39B" />
  <rect x="5" y="30" width="5" height="15" fill="#6495ED" />
  <rect x="40" y="30" width="5" height="15" fill="#6495ED" />
  
  <!-- Legs -->
  <rect x="15" y="55" width="8" height="20" fill="#000080" />
  <rect x="27" y="55" width="8" height="20" fill="#000080" />
  
  <!-- Shoes -->
  <rect x="15" y="75" width="8" height="5" fill="#000000" />
  <rect x="27" y="75" width="8" height="5" fill="#000000" />
</svg>