<?xml version="1.0" encoding="UTF-8" standalone="no"?>
<svg width="128" height="128" viewBox="0 0 128 128" fill="none" xmlns="http://www.w3.org/2000/svg">
  <!-- Pixel art tileset with 32x32 tiles (4 tiles total) -->
  
  <!-- Grass Tile (0,0) -->
  <g id="grass-tile">
    <rect x="0" y="0" width="32" height="32" fill="#4c8049"/>
    <!-- Grass details -->
    <rect x="4" y="4" width="4" height="4" fill="#3c6e39"/>
    <rect x="12" y="8" width="4" height="4" fill="#3c6e39"/>
    <rect x="20" y="4" width="4" height="4" fill="#3c6e39"/>
    <rect x="24" y="16" width="4" height="4" fill="#3c6e39"/>
    <rect x="8" y="20" width="4" height="4" fill="#3c6e39"/>
    <rect x="16" y="24" width="4" height="4" fill="#3c6e39"/>
    <!-- Highlights -->
    <rect x="8" y="12" width="2" height="2" fill="#5c9059"/>
    <rect x="22" y="22" width="2" height="2" fill="#5c9059"/>
    <rect x="28" y="8" width="2" height="2" fill="#5c9059"/>
  </g>
  
  <!-- Dirt Tile (1,0) -->
  <g id="dirt-tile">
    <rect x="32" y="0" width="32" height="32" fill="#8f563b"/>
    <!-- Dirt details -->
    <rect x="36" y="6" width="6" height="6" fill="#7f462b"/>
    <rect x="48" y="8" width="8" height="8" fill="#7f462b"/>
    <rect x="40" y="20" width="8" height="6" fill="#7f462b"/>
    <rect x="54" y="22" width="6" height="6" fill="#7f462b"/>
    <!-- Highlights -->
    <rect x="38" y="14" width="2" height="2" fill="#9f664b"/>
    <rect x="52" y="4" width="2" height="2" fill="#9f664b"/>
    <rect x="44" y="28" width="2" height="2" fill="#9f664b"/>
  </g>
  
  <!-- Stone Tile (0,1) -->
  <g id="stone-tile">
    <rect x="0" y="32" width="32" height="32" fill="#71717a"/>
    <!-- Stone details -->
    <rect x="4" y="36" width="8" height="8" fill="#61616a"/>
    <rect x="16" y="38" width="12" height="10" fill="#61616a"/>
    <rect x="8" y="48" width="10" height="12" fill="#61616a"/>
    <rect x="22" y="52" width="8" height="8" fill="#61616a"/>
    <!-- Cracks -->
    <rect x="14" y="40" width="2" height="6" fill="#51515a"/>
    <rect x="26" y="46" width="2" height="4" fill="#51515a"/>
    <rect x="10" y="56" width="4" height="2" fill="#51515a"/>
  </g>
  
  <!-- Water Tile (1,1) -->
  <g id="water-tile">
    <rect x="32" y="32" width="32" height="32" fill="#5086c1"/>
    <!-- Water details -->
    <rect x="36" y="36" width="24" height="4" fill="#4076b1"/>
    <rect x="34" y="42" width="28" height="2" fill="#4076b1"/>
    <rect x="32" y="48" width="32" height="4" fill="#4076b1"/>
    <rect x="36" y="54" width="24" height="2" fill="#4076b1"/>
    <rect x="34" y="58" width="28" height="4" fill="#4076b1"/>
    <!-- Highlights -->
    <rect x="38" y="38" width="4" height="2" fill="#60a6e1"/>
    <rect x="50" y="44" width="6" height="2" fill="#60a6e1"/>
    <rect x="42" y="56" width="8" height="2" fill="#60a6e1"/>
  </g>
  
  <!-- Tree Tile (0,2) -->
  <g id="tree-tile">
    <rect x="0" y="64" width="32" height="32" fill="#4c8049"/>
    <!-- Tree trunk -->
    <rect x="12" y="76" width="8" height="20" fill="#8f563b"/>
    <rect x="14" y="74" width="4" height="2" fill="#8f563b"/>
    <!-- Tree leaves -->
    <rect x="8" y="64" width="16" height="10" fill="#2c5c29"/>
    <rect x="4" y="68" width="24" height="6" fill="#2c5c29"/>
    <!-- Leaf details -->
    <rect x="6" y="66" width="2" height="2" fill="#3c6e39"/>
    <rect x="14" y="64" width="4" height="2" fill="#3c6e39"/>
    <rect x="24" y="70" width="2" height="2" fill="#3c6e39"/>
    <rect x="10" y="72" width="2" height="2" fill="#3c6e39"/>
  </g>
  
  <!-- Path Tile (1,2) -->
  <g id="path-tile">
    <rect x="32" y="64" width="32" height="32" fill="#d0a875"/>
    <!-- Path details -->
    <rect x="36" y="68" width="4" height="4" fill="#c09865"/>
    <rect x="44" y="72" width="6" height="6" fill="#c09865"/>
    <rect x="54" y="68" width="4" height="4" fill="#c09865"/>
    <rect x="40" y="80" width="8" height="6" fill="#c09865"/>
    <rect x="52" y="84" width="6" height="6" fill="#c09865"/>
    <rect x="36" y="88" width="4" height="4" fill="#c09865"/>
    <!-- Highlights -->
    <rect x="38" y="76" width="2" height="2" fill="#e0b885"/>
    <rect x="50" y="78" width="2" height="2" fill="#e0b885"/>
    <rect x="42" y="88" width="2" height="2" fill="#e0b885"/>
  </g>
  
  <!-- Chest Tile (0,3) -->
  <g id="chest-tile">
    <rect x="0" y="96" width="32" height="32" fill="#4c8049"/>
    <!-- Chest body -->
    <rect x="8" y="104" width="16" height="12" fill="#8f563b"/>
    <!-- Chest top -->
    <rect x="8" y="100" width="16" height="4" fill="#7f462b"/>
    <!-- Chest lock -->
    <rect x="14" y="106" width="4" height="4" fill="#d0a875"/>
    <!-- Chest highlights -->
    <rect x="10" y="108" width="2" height="6" fill="#6f361b"/>
    <rect x="20" y="108" width="2" height="6" fill="#6f361b"/>
  </g>
  
  <!-- Sign Tile (1,3) -->
  <g id="sign-tile">
    <rect x="32" y="96" width="32" height="32" fill="#4c8049"/>
    <!-- Sign post -->
    <rect x="46" y="108" width="4" height="20" fill="#8f563b"/>
    <!-- Sign board -->
    <rect x="38" y="98" width="20" height="10" fill="#7f462b"/>
    <!-- Sign border -->
    <rect x="36" y="96" width="24" height="2" fill="#6f361b"/>
    <rect x="36" y="96" width="2" height="14" fill="#6f361b"/>
    <rect x="58" y="96" width="2" height="14" fill="#6f361b"/>
    <rect x="36" y="108" width="24" height="2" fill="#6f361b"/>
    <!-- Sign text (simplified) -->
    <rect x="40" y="100" width="16" height="2" fill="#d0a875"/>
    <rect x="40" y="104" width="16" height="2" fill="#d0a875"/>
  </g>
</svg>