<?xml version="1.0" encoding="UTF-8" standalone="no"?>
<svg width="128" height="192" viewBox="0 0 128 192" fill="none" xmlns="http://www.w3.org/2000/svg">
  <!-- Pixel art character sprite sheet (4 directions, 4 frames each) -->
  <!-- Each sprite is 32x48 pixels -->
  
  <!-- Row 1: Walking down animation (4 frames) -->
  
  <!-- Frame 1: Down facing idle -->
  <g id="down-1">
    <!-- Head -->
    <rect x="12" y="4" width="8" height="8" fill="#F8D8B0"/>
    <!-- Hair -->
    <rect x="10" y="2" width="12" height="4" fill="#8B572A"/>
    <rect x="8" y="4" width="4" height="4" fill="#8B572A"/>
    <rect x="20" y="4" width="4" height="4" fill="#8B572A"/>
    <!-- Body -->
    <rect x="10" y="12" width="12" height="12" fill="#5086c1"/>
    <!-- Arms -->
    <rect x="6" y="14" width="4" height="8" fill="#5086c1"/>
    <rect x="22" y="14" width="4" height="8" fill="#5086c1"/>
    <!-- Hands -->
    <rect x="6" y="22" width="4" height="4" fill="#F8D8B0"/>
    <rect x="22" y="22" width="4" height="4" fill="#F8D8B0"/>
    <!-- Legs -->
    <rect x="10" y="24" width="4" height="12" fill="#394a6e"/>
    <rect x="18" y="24" width="4" height="12" fill="#394a6e"/>
    <!-- Feet -->
    <rect x="10" y="36" width="4" height="4" fill="#71542e"/>
    <rect x="18" y="36" width="4" height="4" fill="#71542e"/>
    <!-- Face -->
    <rect x="14" y="8" width="4" height="2" fill="#333333"/>
  </g>
  
  <!-- Frame 2: Down walking 1 -->
  <g id="down-2">
    <g transform="translate(32, 0)">
      <!-- Head -->
      <rect x="12" y="4" width="8" height="8" fill="#F8D8B0"/>
      <!-- Hair -->
      <rect x="10" y="2" width="12" height="4" fill="#8B572A"/>
      <rect x="8" y="4" width="4" height="4" fill="#8B572A"/>
      <rect x="20" y="4" width="4" height="4" fill="#8B572A"/>
      <!-- Body -->
      <rect x="10" y="12" width="12" height="12" fill="#5086c1"/>
      <!-- Arms -->
      <rect x="6" y="12" width="4" height="8" fill="#5086c1"/>
      <rect x="22" y="12" width="4" height="8" fill="#5086c1"/>
      <!-- Hands -->
      <rect x="6" y="20" width="4" height="4" fill="#F8D8B0"/>
      <rect x="22" y="20" width="4" height="4" fill="#F8D8B0"/>
      <!-- Legs -->
      <rect x="8" y="24" width="4" height="12" fill="#394a6e"/>
      <rect x="20" y="24" width="4" height="12" fill="#394a6e"/>
      <!-- Feet -->
      <rect x="8" y="36" width="4" height="4" fill="#71542e"/>
      <rect x="20" y="36" width="4" height="4" fill="#71542e"/>
      <!-- Face -->
      <rect x="14" y="8" width="4" height="2" fill="#333333"/>
    </g>
  </g>
  
  <!-- Frame 3: Down walking 2 -->
  <g id="down-3">
    <g transform="translate(64, 0)">
      <!-- Head -->
      <rect x="12" y="4" width="8" height="8" fill="#F8D8B0"/>
      <!-- Hair -->
      <rect x="10" y="2" width="12" height="4" fill="#8B572A"/>
      <rect x="8" y="4" width="4" height="4" fill="#8B572A"/>
      <rect x="20" y="4" width="4" height="4" fill="#8B572A"/>
      <!-- Body -->
      <rect x="10" y="12" width="12" height="12" fill="#5086c1"/>
      <!-- Arms -->
      <rect x="8" y="16" width="4" height="8" fill="#5086c1"/>
      <rect x="20" y="16" width="4" height="8" fill="#5086c1"/>
      <!-- Hands -->
      <rect x="8" y="24" width="4" height="4" fill="#F8D8B0"/>
      <rect x="20" y="24" width="4" height="4" fill="#F8D8B0"/>
      <!-- Legs -->
      <rect x="10" y="24" width="4" height="12" fill="#394a6e"/>
      <rect x="18" y="24" width="4" height="12" fill="#394a6e"/>
      <!-- Feet -->
      <rect x="10" y="36" width="4" height="4" fill="#71542e"/>
      <rect x="18" y="36" width="4" height="4" fill="#71542e"/>
      <!-- Face -->
      <rect x="14" y="8" width="4" height="2" fill="#333333"/>
    </g>
  </g>
  
  <!-- Frame 4: Down walking 3 -->
  <g id="down-4">
    <g transform="translate(96, 0)">
      <!-- Head -->
      <rect x="12" y="4" width="8" height="8" fill="#F8D8B0"/>
      <!-- Hair -->
      <rect x="10" y="2" width="12" height="4" fill="#8B572A"/>
      <rect x="8" y="4" width="4" height="4" fill="#8B572A"/>
      <rect x="20" y="4" width="4" height="4" fill="#8B572A"/>
      <!-- Body -->
      <rect x="10" y="12" width="12" height="12" fill="#5086c1"/>
      <!-- Arms -->
      <rect x="6" y="14" width="4" height="8" fill="#5086c1"/>
      <rect x="22" y="14" width="4" height="8" fill="#5086c1"/>
      <!-- Hands -->
      <rect x="6" y="22" width="4" height="4" fill="#F8D8B0"/>
      <rect x="22" y="22" width="4" height="4" fill="#F8D8B0"/>
      <!-- Legs - reversed positions from frame 2 -->
      <rect x="20" y="24" width="4" height="12" fill="#394a6e"/>
      <rect x="8" y="24" width="4" height="12" fill="#394a6e"/>
      <!-- Feet -->
      <rect x="20" y="36" width="4" height="4" fill="#71542e"/>
      <rect x="8" y="36" width="4" height="4" fill="#71542e"/>
      <!-- Face -->
      <rect x="14" y="8" width="4" height="2" fill="#333333"/>
    </g>
  </g>
  
  <!-- Row 2: Walking right animation (4 frames) -->
  
  <!-- Frame 1: Right facing idle -->
  <g id="right-1">
    <g transform="translate(0, 48)">
      <!-- Head -->
      <rect x="12" y="4" width="8" height="8" fill="#F8D8B0"/>
      <!-- Hair -->
      <rect x="10" y="2" width="10" height="4" fill="#8B572A"/>
      <rect x="8" y="4" width="4" height="4" fill="#8B572A"/>
      <!-- Body -->
      <rect x="10" y="12" width="12" height="12" fill="#5086c1"/>
      <!-- Arms -->
      <rect x="18" y="12" width="8" height="4" fill="#5086c1"/>
      <rect x="6" y="14" width="4" height="8" fill="#5086c1"/>
      <!-- Hands -->
      <rect x="26" y="12" width="4" height="4" fill="#F8D8B0"/>
      <rect x="6" y="22" width="4" height="4" fill="#F8D8B0"/>
      <!-- Legs -->
      <rect x="12" y="24" width="4" height="12" fill="#394a6e"/>
      <rect x="18" y="24" width="4" height="12" fill="#394a6e"/>
      <!-- Feet -->
      <rect x="12" y="36" width="4" height="4" fill="#71542e"/>
      <rect x="18" y="36" width="4" height="4" fill="#71542e"/>
      <!-- Face -->
      <rect x="18" y="6" width="2" height="2" fill="#333333"/>
    </g>
  </g>
  
  <!-- Frame 2: Right walking 1 -->
  <g id="right-2">
    <g transform="translate(32, 48)">
      <!-- Head -->
      <rect x="12" y="4" width="8" height="8" fill="#F8D8B0"/>
      <!-- Hair -->
      <rect x="10" y="2" width="10" height="4" fill="#8B572A"/>
      <rect x="8" y="4" width="4" height="4" fill="#8B572A"/>
      <!-- Body -->
      <rect x="10" y="12" width="12" height="12" fill="#5086c1"/>
      <!-- Arms -->
      <rect x="18" y="10" width="8" height="4" fill="#5086c1"/>
      <rect x="6" y="12" width="4" height="8" fill="#5086c1"/>
      <!-- Hands -->
      <rect x="26" y="10" width="4" height="4" fill="#F8D8B0"/>
      <rect x="6" y="20" width="4" height="4" fill="#F8D8B0"/>
      <!-- Legs - walking position -->
      <rect x="8" y="24" width="4" height="12" fill="#394a6e"/>
      <rect x="18" y="24" width="4" height="12" fill="#394a6e"/>
      <!-- Feet -->
      <rect x="8" y="36" width="4" height="4" fill="#71542e"/>
      <rect x="18" y="36" width="4" height="4" fill="#71542e"/>
      <!-- Face -->
      <rect x="18" y="6" width="2" height="2" fill="#333333"/>
    </g>
  </g>
  
  <!-- Frame 3: Right walking 2 -->
  <g id="right-3">
    <g transform="translate(64, 48)">
      <!-- Head -->
      <rect x="12" y="4" width="8" height="8" fill="#F8D8B0"/>
      <!-- Hair -->
      <rect x="10" y="2" width="10" height="4" fill="#8B572A"/>
      <rect x="8" y="4" width="4" height="4" fill="#8B572A"/>
      <!-- Body -->
      <rect x="10" y="12" width="12" height="12" fill="#5086c1"/>
      <!-- Arms -->
      <rect x="18" y="14" width="8" height="4" fill="#5086c1"/>
      <rect x="8" y="16" width="4" height="8" fill="#5086c1"/>
      <!-- Hands -->
      <rect x="26" y="14" width="4" height="4" fill="#F8D8B0"/>
      <rect x="8" y="24" width="4" height="4" fill="#F8D8B0"/>
      <!-- Legs - neutral position -->
      <rect x="12" y="24" width="4" height="12" fill="#394a6e"/>
      <rect x="18" y="24" width="4" height="12" fill="#394a6e"/>
      <!-- Feet -->
      <rect x="12" y="36" width="4" height="4" fill="#71542e"/>
      <rect x="18" y="36" width="4" height="4" fill="#71542e"/>
      <!-- Face -->
      <rect x="18" y="6" width="2" height="2" fill="#333333"/>
    </g>
  </g>
  
  <!-- Frame 4: Right walking 3 -->
  <g id="right-4">
    <g transform="translate(96, 48)">
      <!-- Head -->
      <rect x="12" y="4" width="8" height="8" fill="#F8D8B0"/>
      <!-- Hair -->
      <rect x="10" y="2" width="10" height="4" fill="#8B572A"/>
      <rect x="8" y="4" width="4" height="4" fill="#8B572A"/>
      <!-- Body -->
      <rect x="10" y="12" width="12" height="12" fill="#5086c1"/>
      <!-- Arms -->
      <rect x="18" y="12" width="8" height="4" fill="#5086c1"/>
      <rect x="6" y="14" width="4" height="8" fill="#5086c1"/>
      <!-- Hands -->
      <rect x="26" y="12" width="4" height="4" fill="#F8D8B0"/>
      <rect x="6" y="22" width="4" height="4" fill="#F8D8B0"/>
      <!-- Legs - alternate walking position -->
      <rect x="18" y="24" width="4" height="12" fill="#394a6e"/>
      <rect x="10" y="24" width="4" height="12" fill="#394a6e"/>
      <!-- Feet -->
      <rect x="18" y="36" width="4" height="4" fill="#71542e"/>
      <rect x="10" y="36" width="4" height="4" fill="#71542e"/>
      <!-- Face -->
      <rect x="18" y="6" width="2" height="2" fill="#333333"/>
    </g>
  </g>
  
  <!-- Row 3: Walking up animation (4 frames) -->
  
  <!-- Frame 1: Up facing idle -->
  <g id="up-1">
    <g transform="translate(0, 96)">
      <!-- Head -->
      <rect x="12" y="4" width="8" height="8" fill="#F8D8B0"/>
      <!-- Hair -->
      <rect x="10" y="2" width="12" height="4" fill="#8B572A"/>
      <rect x="8" y="4" width="4" height="6" fill="#8B572A"/>
      <rect x="20" y="4" width="4" height="6" fill="#8B572A"/>
      <!-- Body -->
      <rect x="10" y="12" width="12" height="12" fill="#5086c1"/>
      <!-- Arms -->
      <rect x="6" y="14" width="4" height="8" fill="#5086c1"/>
      <rect x="22" y="14" width="4" height="8" fill="#5086c1"/>
      <!-- Hands -->
      <rect x="6" y="22" width="4" height="4" fill="#F8D8B0"/>
      <rect x="22" y="22" width="4" height="4" fill="#F8D8B0"/>
      <!-- Legs -->
      <rect x="10" y="24" width="4" height="12" fill="#394a6e"/>
      <rect x="18" y="24" width="4" height="12" fill="#394a6e"/>
      <!-- Feet -->
      <rect x="10" y="36" width="4" height="4" fill="#71542e"/>
      <rect x="18" y="36" width="4" height="4" fill="#71542e"/>
    </g>
  </g>
  
  <!-- Frame 2: Up walking 1 -->
  <g id="up-2">
    <g transform="translate(32, 96)">
      <!-- Head -->
      <rect x="12" y="4" width="8" height="8" fill="#F8D8B0"/>
      <!-- Hair -->
      <rect x="10" y="2" width="12" height="4" fill="#8B572A"/>
      <rect x="8" y="4" width="4" height="6" fill="#8B572A"/>
      <rect x="20" y="4" width="4" height="6" fill="#8B572A"/>
      <!-- Body -->
      <rect x="10" y="12" width="12" height="12" fill="#5086c1"/>
      <!-- Arms -->
      <rect x="6" y="12" width="4" height="8" fill="#5086c1"/>
      <rect x="22" y="12" width="4" height="8" fill="#5086c1"/>
      <!-- Hands -->
      <rect x="6" y="20" width="4" height="4" fill="#F8D8B0"/>
      <rect x="22" y="20" width="4" height="4" fill="#F8D8B0"/>
      <!-- Legs - walking position -->
      <rect x="8" y="24" width="4" height="12" fill="#394a6e"/>
      <rect x="20" y="24" width="4" height="12" fill="#394a6e"/>
      <!-- Feet -->
      <rect x="8" y="36" width="4" height="4" fill="#71542e"/>
      <rect x="20" y="36" width="4" height="4" fill="#71542e"/>
    </g>
  </g>
  
  <!-- Frame 3: Up walking 2 -->
  <g id="up-3">
    <g transform="translate(64, 96)">
      <!-- Head -->
      <rect x="12" y="4" width="8" height="8" fill="#F8D8B0"/>
      <!-- Hair -->
      <rect x="10" y="2" width="12" height="4" fill="#8B572A"/>
      <rect x="8" y="4" width="4" height="6" fill="#8B572A"/>
      <rect x="20" y="4" width="4" height="6" fill="#8B572A"/>
      <!-- Body -->
      <rect x="10" y="12" width="12" height="12" fill="#5086c1"/>
      <!-- Arms -->
      <rect x="8" y="16" width="4" height="8" fill="#5086c1"/>
      <rect x="20" y="16" width="4" height="8" fill="#5086c1"/>
      <!-- Hands -->
      <rect x="8" y="24" width="4" height="4" fill="#F8D8B0"/>
      <rect x="20" y="24" width="4" height="4" fill="#F8D8B0"/>
      <!-- Legs - neutral position -->
      <rect x="10" y="24" width="4" height="12" fill="#394a6e"/>
      <rect x="18" y="24" width="4" height="12" fill="#394a6e"/>
      <!-- Feet -->
      <rect x="10" y="36" width="4" height="4" fill="#71542e"/>
      <rect x="18" y="36" width="4" height="4" fill="#71542e"/>
    </g>
  </g>
  
  <!-- Frame 4: Up walking 3 -->
  <g id="up-4">
    <g transform="translate(96, 96)">
      <!-- Head -->
      <rect x="12" y="4" width="8" height="8" fill="#F8D8B0"/>
      <!-- Hair -->
      <rect x="10" y="2" width="12" height="4" fill="#8B572A"/>
      <rect x="8" y="4" width="4" height="6" fill="#8B572A"/>
      <rect x="20" y="4" width="4" height="6" fill="#8B572A"/>
      <!-- Body -->
      <rect x="10" y="12" width="12" height="12" fill="#5086c1"/>
      <!-- Arms -->
      <rect x="6" y="14" width="4" height="8" fill="#5086c1"/>
      <rect x="22" y="14" width="4" height="8" fill="#5086c1"/>
      <!-- Hands -->
      <rect x="6" y="22" width="4" height="4" fill="#F8D8B0"/>
      <rect x="22" y="22" width="4" height="4" fill="#F8D8B0"/>
      <!-- Legs - alternate walking position -->
      <rect x="20" y="24" width="4" height="12" fill="#394a6e"/>
      <rect x="8" y="24" width="4" height="12" fill="#394a6e"/>
      <!-- Feet -->
      <rect x="20" y="36" width="4" height="4" fill="#71542e"/>
      <rect x="8" y="36" width="4" height="4" fill="#71542e"/>
    </g>
  </g>
  
  <!-- Row 4: Walking left animation (4 frames) -->
  
  <!-- Frame 1: Left facing idle -->
  <g id="left-1">
    <g transform="translate(0, 144)">
      <!-- Head -->
      <rect x="12" y="4" width="8" height="8" fill="#F8D8B0"/>
      <!-- Hair -->
      <rect x="12" y="2" width="10" height="4" fill="#8B572A"/>
      <rect x="20" y="4" width="4" height="4" fill="#8B572A"/>
      <!-- Body -->
      <rect x="10" y="12" width="12" height="12" fill="#5086c1"/>
      <!-- Arms -->
      <rect x="6" y="12" width="8" height="4" fill="#5086c1"/>
      <rect x="22" y="14" width="4" height="8" fill="#5086c1"/>
      <!-- Hands -->
      <rect x="2" y="12" width="4" height="4" fill="#F8D8B0"/>
      <rect x="22" y="22" width="4" height="4" fill="#F8D8B0"/>
      <!-- Legs -->
      <rect x="10" y="24" width="4" height="12" fill="#394a6e"/>
      <rect x="16" y="24" width="4" height="12" fill="#394a6e"/>
      <!-- Feet -->
      <rect x="10" y="36" width="4" height="4" fill="#71542e"/>
      <rect x="16" y="36" width="4" height="4" fill="#71542e"/>
      <!-- Face -->
      <rect x="12" y="6" width="2" height="2" fill="#333333"/>
    </g>
  </g>
  
  <!-- Frame 2: Left walking 1 -->
  <g id="left-2">
    <g transform="translate(32, 144)">
      <!-- Head -->
      <rect x="12" y="4" width="8" height="8" fill="#F8D8B0"/>
      <!-- Hair -->
      <rect x="12" y="2" width="10" height="4" fill="#8B572A"/>
      <rect x="20" y="4" width="4" height="4" fill="#8B572A"/>
      <!-- Body -->
      <rect x="10" y="12" width="12" height="12" fill="#5086c1"/>
      <!-- Arms -->
      <rect x="6" y="10" width="8" height="4" fill="#5086c1"/>
      <rect x="22" y="12" width="4" height="8" fill="#5086c1"/>
      <!-- Hands -->
      <rect x="2" y="10" width="4" height="4" fill="#F8D8B0"/>
      <rect x="22" y="20" width="4" height="4" fill="#F8D8B0"/>
      <!-- Legs - walking position -->
      <rect x="10" y="24" width="4" height="12" fill="#394a6e"/>
      <rect x="20" y="24" width="4" height="12" fill="#394a6e"/>
      <!-- Feet -->
      <rect x="10" y="36" width="4" height="4" fill="#71542e"/>
      <rect x="20" y="36" width="4" height="4" fill="#71542e"/>
      <!-- Face -->
      <rect x="12" y="6" width="2" height="2" fill="#333333"/>
    </g>
  </g>
  
  <!-- Frame 3: Left walking 2 -->
  <g id="left-3">
    <g transform="translate(64, 144)">
      <!-- Head -->
      <rect x="12" y="4" width="8" height="8" fill="#F8D8B0"/>
      <!-- Hair -->
      <rect x="12" y="2" width="10" height="4" fill="#8B572A"/>
      <rect x="20" y="4" width="4" height="4" fill="#8B572A"/>
      <!-- Body -->
      <rect x="10" y="12" width="12" height="12" fill="#5086c1"/>
      <!-- Arms -->
      <rect x="6" y="14" width="8" height="4" fill="#5086c1"/>
      <rect x="20" y="16" width="4" height="8" fill="#5086c1"/>
      <!-- Hands -->
      <rect x="2" y="14" width="4" height="4" fill="#F8D8B0"/>
      <rect x="20" y="24" width="4" height="4" fill="#F8D8B0"/>
      <!-- Legs - neutral position -->
      <rect x="10" y="24" width="4" height="12" fill="#394a6e"/>
      <rect x="16" y="24" width="4" height="12" fill="#394a6e"/>
      <!-- Feet -->
      <rect x="10" y="36" width="4" height="4" fill="#71542e"/>
      <rect x="16" y="36" width="4" height="4" fill="#71542e"/>
      <!-- Face -->
      <rect x="12" y="6" width="2" height="2" fill="#333333"/>
    </g>
  </g>
  
  <!-- Frame 4: Left walking 3 -->
  <g id="left-4">
    <g transform="translate(96, 144)">
      <!-- Head -->
      <rect x="12" y="4" width="8" height="8" fill="#F8D8B0"/>
      <!-- Hair -->
      <rect x="12" y="2" width="10" height="4" fill="#8B572A"/>
      <rect x="20" y="4" width="4" height="4" fill="#8B572A"/>
      <!-- Body -->
      <rect x="10" y="12" width="12" height="12" fill="#5086c1"/>
      <!-- Arms -->
      <rect x="6" y="12" width="8" height="4" fill="#5086c1"/>
      <rect x="22" y="14" width="4" height="8" fill="#5086c1"/>
      <!-- Hands -->
      <rect x="2" y="12" width="4" height="4" fill="#F8D8B0"/>
      <rect x="22" y="22" width="4" height="4" fill="#F8D8B0"/>
      <!-- Legs - alternate walking position -->
      <rect x="8" y="24" width="4" height="12" fill="#394a6e"/>
      <rect x="16" y="24" width="4" height="12" fill="#394a6e"/>
      <!-- Feet -->
      <rect x="8" y="36" width="4" height="4" fill="#71542e"/>
      <rect x="16" y="36" width="4" height="4" fill="#71542e"/>
      <!-- Face -->
      <rect x="12" y="6" width="2" height="2" fill="#333333"/>
    </g>
  </g>
</svg>