<?xml version="1.0" encoding="UTF-8" standalone="no"?>
<svg width="32" height="32" viewBox="0 0 32 32" fill="none" xmlns="http://www.w3.org/2000/svg">
  <g id="potion-item">
    <!-- Potion bottle -->
    <path d="M12 8V24C12 26.2091 13.7909 28 16 28V28C18.2091 28 20 26.2091 20 24V8H12Z" fill="#6C4A83"/>
    
    <!-- Bottle shine -->
    <rect x="14" y="12" width="4" height="12" fill="#9669B2"/>
    
    <!-- Bottle liquid -->
    <path d="M12 16V24C12 26.2091 13.7909 28 16 28V28C18.2091 28 20 26.2091 20 24V16H12Z" fill="#E84545"/>
    
    <!-- Liquid bubbles -->
    <circle cx="14" cy="20" r="1" fill="#FF6464"/>
    <circle cx="16" cy="22" r="1" fill="#FF6464"/>
    <circle cx="18" cy="18" r="1" fill="#FF6464"/>
    
    <!-- Bottle cork -->
    <rect x="12" y="6" width="8" height="2" fill="#BF8C60"/>
    
    <!-- Bottle neck -->
    <rect x="14" y="4" width="4" height="2" fill="#6C4A83"/>
    
    <!-- Cork top -->
    <rect x="14" y="2" width="4" height="2" fill="#BF8C60"/>
    
    <!-- Highlight -->
    <rect x="15" y="14" width="2" height="8" fill="#FF8B8B"/>
  </g>
</svg>