<?xml version="1.0" encoding="UTF-8" standalone="no"?>
<svg width="350" height="20" viewBox="0 0 350 20" fill="none" xmlns="http://www.w3.org/2000/svg">
  <!-- Pixel art style loading bar -->
  <rect width="350" height="20" rx="2" fill="#38A69E" opacity="0.5"/>
  
  <!-- Pixelated shine details -->
  <rect x="4" y="4" width="4" height="2" fill="#4CCBC3" opacity="0.7"/>
  <rect x="12" y="4" width="8" height="2" fill="#4CCBC3" opacity="0.7"/>
  <rect x="24" y="4" width="12" height="2" fill="#4CCBC3" opacity="0.7"/>
  <rect x="40" y="4" width="8" height="2" fill="#4CCBC3" opacity="0.7"/>
  <rect x="52" y="4" width="4" height="2" fill="#4CCBC3" opacity="0.7"/>
  <rect x="60" y="4" width="12" height="2" fill="#4CCBC3" opacity="0.7"/>
  <rect x="76" y="4" width="8" height="2" fill="#4CCBC3" opacity="0.7"/>
  <rect x="88" y="4" width="4" height="2" fill="#4CCBC3" opacity="0.7"/>
  <rect x="96" y="4" width="12" height="2" fill="#4CCBC3" opacity="0.7"/>
  
  <!-- Pixelated shadow details -->
  <rect x="4" y="14" width="8" height="2" fill="#2A8D85" opacity="0.7"/>
  <rect x="16" y="14" width="12" height="2" fill="#2A8D85" opacity="0.7"/>
  <rect x="32" y="14" width="4" height="2" fill="#2A8D85" opacity="0.7"/>
  <rect x="40" y="14" width="16" height="2" fill="#2A8D85" opacity="0.7"/>
  <rect x="60" y="14" width="8" height="2" fill="#2A8D85" opacity="0.7"/>
  <rect x="72" y="14" width="12" height="2" fill="#2A8D85" opacity="0.7"/>
  <rect x="88" y="14" width="4" height="2" fill="#2A8D85" opacity="0.7"/>
  <rect x="96" y="14" width="16" height="2" fill="#2A8D85" opacity="0.7"/>
</svg>