<svg width="32" height="32" xmlns="http://www.w3.org/2000/svg">
  <!-- Chest base -->
  <rect x="2" y="8" width="28" height="20" fill="#8B4513" />
  
  <!-- Chest top -->
  <rect x="0" y="6" width="32" height="6" fill="#A0522D" />
  
  <!-- Chest bottom shadow -->
  <rect x="2" y="24" width="28" height="4" fill="#6B3304" />
  
  <!-- Chest side highlights -->
  <rect x="2" y="8" width="2" height="20" fill="#A0522D" />
  <rect x="28" y="8" width="2" height="20" fill="#6B3304" />
  
  <!-- Lock -->
  <rect x="14" y="14" width="4" height="6" fill="#FFD700" />
  
  <!-- Lock details -->
  <rect x="15" y="16" width="2" height="2" fill="#8B4513" />
  
  <!-- Metal bands -->
  <rect x="0" y="10" width="32" height="2" fill="#A9A9A9" />
  <rect x="0" y="22" width="32" height="2" fill="#A9A9A9" />
  
  <!-- Metal corners -->
  <rect x="0" y="6" width="4" height="4" fill="#A9A9A9" />
  <rect x="28" y="6" width="4" height="4" fill="#A9A9A9" />
  <rect x="0" y="22" width="4" height="6" fill="#A9A9A9" />
  <rect x="28" y="22" width="4" height="6" fill="#A9A9A9" />
  
  <!-- Highlights -->
  <rect x="6" y="12" width="6" height="2" fill="#CD853F" />
  <rect x="20" y="12" width="6" height="2" fill="#CD853F" />
  <rect x="6" y="16" width="6" height="2" fill="#CD853F" />
  <rect x="20" y="16" width="6" height="2" fill="#CD853F" />
  <rect x="6" y="20" width="6" height="2" fill="#CD853F" />
  <rect x="20" y="20" width="6" height="2" fill="#CD853F" />
</svg>