<svg width="32" height="32" xmlns="http://www.w3.org/2000/svg">
  <!-- Dirt background -->
  <rect width="32" height="32" fill="#45321d" />
  
  <!-- Grass top layer -->
  <rect x="0" y="0" width="32" height="6" fill="#295c32" />
  
  <!-- Pixel details for texture -->
  <g fill="#3a2717">
    <rect x="4" y="8" width="2" height="2" />
    <rect x="12" y="10" width="2" height="2" />
    <rect x="20" y="14" width="2" height="2" />
    <rect x="28" y="12" width="2" height="2" />
    <rect x="8" y="20" width="2" height="2" />
    <rect x="16" y="18" width="2" height="2" />
    <rect x="24" y="22" width="2" height="2" />
    <rect x="2" y="26" width="2" height="2" />
    <rect x="14" y="28" width="2" height="2" />
    <rect x="26" y="24" width="2" height="2" />
  </g>
  
  <!-- Grass details -->
  <g fill="#1e4023">
    <rect x="6" y="0" width="2" height="4" />
    <rect x="14" y="0" width="2" height="3" />
    <rect x="22" y="0" width="2" height="4" />
    <rect x="30" y="0" width="2" height="3" />
    <rect x="2" y="0" width="2" height="2" />
    <rect x="10" y="0" width="2" height="4" />
    <rect x="18" y="0" width="2" height="2" />
    <rect x="26" y="0" width="2" height="3" />
  </g>
  
  <!-- Stone details -->
  <g fill="#707070">
    <rect x="5" y="15" width="4" height="3" />
    <rect x="24" y="8" width="3" height="3" />
  </g>
</svg>