<svg width="192" height="48" xmlns="http://www.w3.org/2000/svg">
  <!-- Frame 1 -->
  <g transform="translate(0, 0)">
    <!-- Body -->
    <rect x="10" y="16" width="12" height="20" fill="#603913" />
    
    <!-- Head -->
    <rect x="8" y="4" width="16" height="16" fill="#ffe0bd" />
    
    <!-- Hair -->
    <rect x="8" y="4" width="16" height="4" fill="#4d2600" />
    <rect x="8" y="4" width="4" height="8" fill="#4d2600" />
    
    <!-- Eyes -->
    <rect x="12" y="10" width="2" height="2" fill="#000000" />
    <rect x="18" y="10" width="2" height="2" fill="#000000" />
    
    <!-- Mouth -->
    <rect x="14" y="14" width="4" height="1" fill="#ff9999" />
    
    <!-- Arms -->
    <rect x="4" y="18" width="6" height="4" fill="#603913" />
    <rect x="22" y="18" width="6" height="4" fill="#603913" />
    
    <!-- Legs -->
    <rect x="8" y="36" width="4" height="10" fill="#3e3e3e" />
    <rect x="20" y="36" width="4" height="10" fill="#3e3e3e" />
    
    <!-- Shirt -->
    <rect x="10" y="16" width="12" height="10" fill="#d62728" />
    
    <!-- Hands -->
    <rect x="4" y="22" width="4" height="4" fill="#ffe0bd" />
    <rect x="24" y="22" width="4" height="4" fill="#ffe0bd" />
    
    <!-- Shoes -->
    <rect x="8" y="42" width="6" height="4" fill="#000000" />
    <rect x="20" y="42" width="6" height="4" fill="#000000" />
  </g>
  
  <!-- Frame 2 -->
  <g transform="translate(32, 0)">
    <!-- Body -->
    <rect x="10" y="16" width="12" height="20" fill="#603913" />
    
    <!-- Head -->
    <rect x="8" y="4" width="16" height="16" fill="#ffe0bd" />
    
    <!-- Hair -->
    <rect x="8" y="4" width="16" height="4" fill="#4d2600" />
    <rect x="8" y="4" width="4" height="8" fill="#4d2600" />
    
    <!-- Eyes -->
    <rect x="12" y="10" width="2" height="2" fill="#000000" />
    <rect x="18" y="10" width="2" height="2" fill="#000000" />
    
    <!-- Mouth -->
    <rect x="14" y="14" width="4" height="1" fill="#ff9999" />
    
    <!-- Arms -->
    <rect x="6" y="16" width="4" height="10" fill="#603913" />
    <rect x="22" y="16" width="4" height="10" fill="#603913" />
    
    <!-- Legs -->
    <rect x="10" y="36" width="4" height="10" fill="#3e3e3e" />
    <rect x="18" y="36" width="4" height="10" fill="#3e3e3e" />
    
    <!-- Shirt -->
    <rect x="10" y="16" width="12" height="10" fill="#d62728" />
    
    <!-- Hands -->
    <rect x="6" y="26" width="4" height="4" fill="#ffe0bd" />
    <rect x="22" y="26" width="4" height="4" fill="#ffe0bd" />
    
    <!-- Shoes -->
    <rect x="10" y="42" width="4" height="4" fill="#000000" />
    <rect x="18" y="42" width="4" height="4" fill="#000000" />
  </g>
  
  <!-- Frame 3 -->
  <g transform="translate(64, 0)">
    <!-- Body -->
    <rect x="10" y="16" width="12" height="20" fill="#603913" />
    
    <!-- Head -->
    <rect x="8" y="4" width="16" height="16" fill="#ffe0bd" />
    
    <!-- Hair -->
    <rect x="8" y="4" width="16" height="4" fill="#4d2600" />
    <rect x="8" y="4" width="4" height="8" fill="#4d2600" />
    
    <!-- Eyes -->
    <rect x="12" y="10" width="2" height="2" fill="#000000" />
    <rect x="18" y="10" width="2" height="2" fill="#000000" />
    
    <!-- Mouth -->
    <rect x="14" y="14" width="4" height="1" fill="#ff9999" />
    
    <!-- Arms -->
    <rect x="8" y="16" width="4" height="10" fill="#603913" />
    <rect x="20" y="16" width="4" height="10" fill="#603913" />
    
    <!-- Legs -->
    <rect x="12" y="36" width="4" height="10" fill="#3e3e3e" />
    <rect x="16" y="36" width="4" height="10" fill="#3e3e3e" />
    
    <!-- Shirt -->
    <rect x="10" y="16" width="12" height="10" fill="#d62728" />
    
    <!-- Hands -->
    <rect x="8" y="26" width="4" height="4" fill="#ffe0bd" />
    <rect x="20" y="26" width="4" height="4" fill="#ffe0bd" />
    
    <!-- Shoes -->
    <rect x="12" y="42" width="4" height="4" fill="#000000" />
    <rect x="16" y="42" width="4" height="4" fill="#000000" />
  </g>
  
  <!-- Frame 4 -->
  <g transform="translate(96, 0)">
    <!-- Body -->
    <rect x="10" y="16" width="12" height="20" fill="#603913" />
    
    <!-- Head -->
    <rect x="8" y="4" width="16" height="16" fill="#ffe0bd" />
    
    <!-- Hair -->
    <rect x="8" y="4" width="16" height="4" fill="#4d2600" />
    <rect x="8" y="4" width="4" height="8" fill="#4d2600" />
    
    <!-- Eyes -->
    <rect x="12" y="10" width="2" height="2" fill="#000000" />
    <rect x="18" y="10" width="2" height="2" fill="#000000" />
    
    <!-- Mouth -->
    <rect x="14" y="14" width="4" height="1" fill="#ff9999" />
    
    <!-- Arms -->
    <rect x="6" y="16" width="4" height="10" fill="#603913" />
    <rect x="22" y="16" width="4" height="10" fill="#603913" />
    
    <!-- Legs -->
    <rect x="14" y="36" width="4" height="10" fill="#3e3e3e" />
    <rect x="14" y="36" width="4" height="10" fill="#3e3e3e" />
    
    <!-- Shirt -->
    <rect x="10" y="16" width="12" height="10" fill="#d62728" />
    
    <!-- Hands -->
    <rect x="6" y="26" width="4" height="4" fill="#ffe0bd" />
    <rect x="22" y="26" width="4" height="4" fill="#ffe0bd" />
    
    <!-- Shoes -->
    <rect x="14" y="42" width="4" height="4" fill="#000000" />
    <rect x="14" y="42" width="4" height="4" fill="#000000" />
  </g>
  
  <!-- Frame 5 -->
  <g transform="translate(128, 0)">
    <!-- Body -->
    <rect x="10" y="16" width="12" height="20" fill="#603913" />
    
    <!-- Head -->
    <rect x="8" y="4" width="16" height="16" fill="#ffe0bd" />
    
    <!-- Hair -->
    <rect x="8" y="4" width="16" height="4" fill="#4d2600" />
    <rect x="8" y="4" width="4" height="8" fill="#4d2600" />
    
    <!-- Eyes -->
    <rect x="12" y="10" width="2" height="2" fill="#000000" />
    <rect x="18" y="10" width="2" height="2" fill="#000000" />
    
    <!-- Mouth -->
    <rect x="14" y="14" width="4" height="1" fill="#ff9999" />
    
    <!-- Arms -->
    <rect x="4" y="18" width="6" height="4" fill="#603913" />
    <rect x="22" y="18" width="6" height="4" fill="#603913" />
    
    <!-- Legs -->
    <rect x="10" y="36" width="4" height="10" fill="#3e3e3e" />
    <rect x="18" y="36" width="4" height="10" fill="#3e3e3e" />
    
    <!-- Shirt -->
    <rect x="10" y="16" width="12" height="10" fill="#d62728" />
    
    <!-- Hands -->
    <rect x="4" y="22" width="4" height="4" fill="#ffe0bd" />
    <rect x="24" y="22" width="4" height="4" fill="#ffe0bd" />
    
    <!-- Shoes -->
    <rect x="10" y="42" width="4" height="4" fill="#000000" />
    <rect x="18" y="42" width="4" height="4" fill="#000000" />
  </g>
  
  <!-- Frame 6 -->
  <g transform="translate(160, 0)">
    <!-- Body -->
    <rect x="10" y="16" width="12" height="20" fill="#603913" />
    
    <!-- Head -->
    <rect x="8" y="4" width="16" height="16" fill="#ffe0bd" />
    
    <!-- Hair -->
    <rect x="8" y="4" width="16" height="4" fill="#4d2600" />
    <rect x="8" y="4" width="4" height="8" fill="#4d2600" />
    
    <!-- Eyes -->
    <rect x="12" y="10" width="2" height="2" fill="#000000" />
    <rect x="18" y="10" width="2" height="2" fill="#000000" />
    
    <!-- Mouth -->
    <rect x="14" y="14" width="4" height="1" fill="#ff9999" />
    
    <!-- Arms -->
    <rect x="6" y="16" width="4" height="10" fill="#603913" />
    <rect x="22" y="16" width="4" height="10" fill="#603913" />
    
    <!-- Legs -->
    <rect x="8" y="36" width="4" height="10" fill="#3e3e3e" />
    <rect x="20" y="36" width="4" height="10" fill="#3e3e3e" />
    
    <!-- Shirt -->
    <rect x="10" y="16" width="12" height="10" fill="#d62728" />
    
    <!-- Hands -->
    <rect x="6" y="26" width="4" height="4" fill="#ffe0bd" />
    <rect x="22" y="26" width="4" height="4" fill="#ffe0bd" />
    
    <!-- Shoes -->
    <rect x="8" y="42" width="6" height="4" fill="#000000" />
    <rect x="20" y="42" width="6" height="4" fill="#000000" />
  </g>
</svg>