<svg width="128" height="48" xmlns="http://www.w3.org/2000/svg">
  <!-- Frame 1 -->
  <g transform="translate(0, 0)">
    <!-- Body -->
    <rect x="10" y="18" width="12" height="20" fill="#603913" />
    
    <!-- Head -->
    <rect x="8" y="6" width="16" height="16" fill="#ffe0bd" />
    
    <!-- Hair -->
    <rect x="8" y="6" width="16" height="4" fill="#4d2600" />
    <rect x="8" y="6" width="4" height="8" fill="#4d2600" />
    
    <!-- Eyes -->
    <rect x="12" y="12" width="2" height="2" fill="#000000" />
    <rect x="18" y="12" width="2" height="2" fill="#000000" />
    
    <!-- Mouth -->
    <rect x="14" y="16" width="4" height="1" fill="#ff9999" />
    
    <!-- Arms -->
    <rect x="6" y="20" width="4" height="12" fill="#603913" />
    <rect x="22" y="20" width="4" height="12" fill="#603913" />
    
    <!-- Legs -->
    <rect x="10" y="38" width="4" height="10" fill="#3e3e3e" />
    <rect x="18" y="38" width="4" height="10" fill="#3e3e3e" />
    
    <!-- Shirt -->
    <rect x="10" y="18" width="12" height="10" fill="#d62728" />
    
    <!-- Hands -->
    <rect x="6" y="32" width="4" height="4" fill="#ffe0bd" />
    <rect x="22" y="32" width="4" height="4" fill="#ffe0bd" />
    
    <!-- Shoes -->
    <rect x="10" y="44" width="4" height="4" fill="#000000" />
    <rect x="18" y="44" width="4" height="4" fill="#000000" />
  </g>
  
  <!-- Frame 2 -->
  <g transform="translate(32, 0)">
    <!-- Body -->
    <rect x="10" y="18" width="12" height="20" fill="#603913" />
    
    <!-- Head -->
    <rect x="8" y="5" width="16" height="16" fill="#ffe0bd" />
    
    <!-- Hair -->
    <rect x="8" y="5" width="16" height="4" fill="#4d2600" />
    <rect x="8" y="5" width="4" height="8" fill="#4d2600" />
    
    <!-- Eyes -->
    <rect x="12" y="11" width="2" height="2" fill="#000000" />
    <rect x="18" y="11" width="2" height="2" fill="#000000" />
    
    <!-- Mouth -->
    <rect x="14" y="15" width="4" height="1" fill="#ff9999" />
    
    <!-- Arms -->
    <rect x="6" y="20" width="4" height="12" fill="#603913" />
    <rect x="22" y="20" width="4" height="12" fill="#603913" />
    
    <!-- Legs -->
    <rect x="10" y="38" width="4" height="10" fill="#3e3e3e" />
    <rect x="18" y="38" width="4" height="10" fill="#3e3e3e" />
    
    <!-- Shirt -->
    <rect x="10" y="18" width="12" height="10" fill="#d62728" />
    
    <!-- Hands -->
    <rect x="6" y="32" width="4" height="4" fill="#ffe0bd" />
    <rect x="22" y="32" width="4" height="4" fill="#ffe0bd" />
    
    <!-- Shoes -->
    <rect x="10" y="44" width="4" height="4" fill="#000000" />
    <rect x="18" y="44" width="4" height="4" fill="#000000" />
  </g>
  
  <!-- Frame 3 -->
  <g transform="translate(64, 0)">
    <!-- Body -->
    <rect x="10" y="18" width="12" height="20" fill="#603913" />
    
    <!-- Head -->
    <rect x="8" y="6" width="16" height="16" fill="#ffe0bd" />
    
    <!-- Hair -->
    <rect x="8" y="6" width="16" height="4" fill="#4d2600" />
    <rect x="8" y="6" width="4" height="8" fill="#4d2600" />
    
    <!-- Eyes -->
    <rect x="12" y="12" width="2" height="2" fill="#000000" />
    <rect x="18" y="12" width="2" height="2" fill="#000000" />
    
    <!-- Mouth -->
    <rect x="14" y="16" width="4" height="1" fill="#ff9999" />
    
    <!-- Arms -->
    <rect x="6" y="19" width="4" height="12" fill="#603913" />
    <rect x="22" y="19" width="4" height="12" fill="#603913" />
    
    <!-- Legs -->
    <rect x="10" y="38" width="4" height="10" fill="#3e3e3e" />
    <rect x="18" y="38" width="4" height="10" fill="#3e3e3e" />
    
    <!-- Shirt -->
    <rect x="10" y="18" width="12" height="10" fill="#d62728" />
    
    <!-- Hands -->
    <rect x="6" y="31" width="4" height="4" fill="#ffe0bd" />
    <rect x="22" y="31" width="4" height="4" fill="#ffe0bd" />
    
    <!-- Shoes -->
    <rect x="10" y="44" width="4" height="4" fill="#000000" />
    <rect x="18" y="44" width="4" height="4" fill="#000000" />
  </g>
  
  <!-- Frame 4 -->
  <g transform="translate(96, 0)">
    <!-- Body -->
    <rect x="10" y="18" width="12" height="20" fill="#603913" />
    
    <!-- Head -->
    <rect x="8" y="5" width="16" height="16" fill="#ffe0bd" />
    
    <!-- Hair -->
    <rect x="8" y="5" width="16" height="4" fill="#4d2600" />
    <rect x="8" y="5" width="4" height="8" fill="#4d2600" />
    
    <!-- Eyes -->
    <rect x="12" y="11" width="2" height="2" fill="#000000" />
    <rect x="18" y="11" width="2" height="2" fill="#000000" />
    
    <!-- Mouth -->
    <rect x="14" y="15" width="4" height="1" fill="#ff9999" />
    
    <!-- Arms -->
    <rect x="6" y="19" width="4" height="12" fill="#603913" />
    <rect x="22" y="19" width="4" height="12" fill="#603913" />
    
    <!-- Legs -->
    <rect x="10" y="38" width="4" height="10" fill="#3e3e3e" />
    <rect x="18" y="38" width="4" height="10" fill="#3e3e3e" />
    
    <!-- Shirt -->
    <rect x="10" y="18" width="12" height="10" fill="#d62728" />
    
    <!-- Hands -->
    <rect x="6" y="31" width="4" height="4" fill="#ffe0bd" />
    <rect x="22" y="31" width="4" height="4" fill="#ffe0bd" />
    
    <!-- Shoes -->
    <rect x="10" y="44" width="4" height="4" fill="#000000" />
    <rect x="18" y="44" width="4" height="4" fill="#000000" />
  </g>
</svg>